<svg width="55" height="52" viewBox="0 0 55 52" fill="none" xmlns="http://www.w3.org/2000/svg">
<g clip-path="url(#clip0_172_1041)">
<path fill-rule="evenodd" clip-rule="evenodd" d="M4.10947 34.4518H11.0634C11.762 34.4518 12.3284 35.0167 12.3284 35.7134V47.3193H2.84444V35.7109C2.84444 35.0191 3.41333 34.4518 4.10947 34.4518ZM9.40911 22.5647C8.87266 22.2487 8.24888 22.067 7.58517 22.067C6.59461 22.067 5.69886 22.4677 5.04763 23.1196H5.04514C4.39641 23.7641 3.9922 24.66 3.9922 25.6478C3.9922 26.6357 4.39391 27.5266 5.04514 28.1761L5.05013 28.181C5.70136 28.828 6.5996 29.2311 7.58517 29.2311C8.57075 29.2311 9.46899 28.8305 10.1202 28.181L10.1252 28.1761C10.7739 27.5266 11.1782 26.6308 11.1782 25.6478C11.1782 24.9834 10.996 24.3613 10.6816 23.8263L19.0378 15.4927C19.5742 15.8087 20.198 15.9904 20.8617 15.9904C21.8548 15.9904 22.7505 15.5898 23.3993 14.9403C23.4417 14.8955 23.4841 14.8532 23.524 14.8084L30.6401 18.5236C30.5777 18.7873 30.5428 19.0611 30.5428 19.3447C30.5428 20.3326 30.9445 21.226 31.5957 21.8754H31.5933C32.242 22.5249 33.1427 22.928 34.1308 22.928C35.1189 22.928 36.0146 22.5274 36.6658 21.8779L36.6708 21.8729C37.3196 21.2235 37.7238 20.3277 37.7238 19.3447C37.7238 18.5708 37.4767 17.8542 37.0551 17.2669L45.8604 6.81318C46.3319 7.03962 46.8559 7.16653 47.4123 7.16653C48.4054 7.16653 49.3011 6.7659 49.9499 6.11643C50.5986 5.46696 51.0028 4.57114 51.0028 3.58573C51.0028 2.60033 50.6011 1.7045 49.9474 1.05503H49.9499C49.3011 0.405561 48.4004 0.00244141 47.4123 0.00244141C46.4243 0.00244141 45.5285 0.403073 44.8773 1.05254L44.8723 1.05752C44.2236 1.70699 43.8194 2.60281 43.8194 3.58573C43.8194 4.35962 44.0664 5.08126 44.488 5.66603L35.6877 16.1123C35.2162 15.8859 34.6922 15.759 34.1358 15.759C33.1427 15.759 32.247 16.1596 31.5982 16.8091H31.6007C31.5583 16.8539 31.5159 16.8986 31.4735 16.9459L24.3574 13.2308C24.4198 12.967 24.4547 12.6933 24.4547 12.4096C24.4547 11.4242 24.053 10.5284 23.4018 9.87888H23.4043C22.7555 9.22941 21.8548 8.82629 20.8667 8.82629C19.8786 8.82629 18.9829 9.22692 18.3317 9.87639L18.3267 9.88137C17.6779 10.5308 17.2737 11.4267 17.2737 12.4096C17.2737 13.074 17.4559 13.6961 17.7703 14.2286L9.40662 22.5672L9.40911 22.5647ZM1.44967 52H53.5528C54.3488 52 55.0025 51.3505 55.0025 50.5542C55.0025 49.7579 54.3513 49.1084 53.5528 49.1084H1.44967C0.653722 49.1084 0 49.7579 0 50.5542C0 51.3505 0.651227 52 1.44967 52ZM43.9341 12.3847H50.888C51.5867 12.3847 52.1531 12.9496 52.1531 13.6463V47.3218H42.6716V13.6463C42.6741 12.9496 43.2405 12.3847 43.9366 12.3847H43.9341ZM30.6601 28.1462H37.614C38.3126 28.1462 38.879 28.7111 38.879 29.4078V47.3193H29.3975V29.4078C29.3975 28.7111 29.9639 28.1462 30.6626 28.1462H30.6601ZM17.3835 21.211H24.3374C25.0361 21.211 25.6025 21.7759 25.6025 22.4727V47.3218H16.121V22.4727C16.1235 21.7759 16.6899 21.211 17.386 21.211H17.3835Z" fill="#D2D4F5"/>
</g>
<defs>
<clipPath id="clip0_172_1041">
<rect width="55" height="52" fill="white"/>
</clipPath>
</defs>
</svg>
