<svg width="65" height="45" viewBox="0 0 65 45" fill="none" xmlns="http://www.w3.org/2000/svg">
<g clip-path="url(#clip0_172_1023)">
<path d="M56.6995 0C56.4028 0 56.1689 0.21007 56.1689 0.465155C56.1689 0.72024 56.4085 0.93031 56.6995 0.93031H63.9388V7.27743C63.9388 7.53751 64.1784 7.74258 64.4694 7.74258C64.7603 7.74258 64.9999 7.53251 64.9999 7.27743V0.465155C64.9999 0.21007 64.7603 0 64.4694 0H56.6995Z" fill="#D2D4F5"/>
<path d="M8.30613 0.935281C8.60277 0.935281 8.83667 0.72521 8.83667 0.470125C8.83667 0.21504 8.59707 0.00497032 8.30613 0.00497032H0.530542C0.2396 -3.13474e-05 0 0.210039 0 0.465124V7.2774C0 7.53748 0.2396 7.74255 0.530542 7.74255C0.821485 7.74255 1.06108 7.53248 1.06108 7.2774V0.935281H8.30042H8.30613Z" fill="#D2D4F5"/>
<path d="M56.6995 44.0647C56.4028 44.0647 56.1689 44.2748 56.1689 44.5299C56.1689 44.7849 56.4085 44.995 56.6995 44.995H64.4694C64.766 44.995 64.9999 44.7849 64.9999 44.5299V37.7176C64.9999 37.4575 64.7603 37.2524 64.4694 37.2524C64.1784 37.2524 63.9388 37.4625 63.9388 37.7176V44.0647H56.6995Z" fill="#D2D4F5"/>
<path d="M8.30613 44.9999C8.60277 44.9999 8.83667 44.7898 8.83667 44.5348C8.83667 44.2797 8.59707 44.0696 8.30613 44.0696H1.06679V37.7225C1.06679 37.4624 0.82719 37.2573 0.536247 37.2573C0.245305 37.2573 0 37.4574 0 37.7175V44.5297C0 44.7898 0.2396 44.9949 0.530542 44.9949H8.30042L8.30613 44.9999Z" fill="#D2D4F5"/>
<path fill-rule="evenodd" clip-rule="evenodd" d="M5.79592 41.7338V3.66113H3.6167V41.7338H5.79592Z" fill="#D2D4F5"/>
<path fill-rule="evenodd" clip-rule="evenodd" d="M9.54395 3.66113V41.7338H13.8396V3.66113H9.54395Z" fill="#D2D4F5"/>
<path fill-rule="evenodd" clip-rule="evenodd" d="M18.084 3.66113V41.7338H26.4015V3.66113H18.084Z" fill="#D2D4F5"/>
<path fill-rule="evenodd" clip-rule="evenodd" d="M30.4233 3.66113V41.7338H32.0378V3.66113H30.4233Z" fill="#D2D4F5"/>
<path fill-rule="evenodd" clip-rule="evenodd" d="M35.7861 3.66113V41.7338H40.0818V3.66113H35.7861Z" fill="#D2D4F5"/>
<path fill-rule="evenodd" clip-rule="evenodd" d="M43.8296 3.66113V41.7338H45.444V3.66113H43.8296Z" fill="#D2D4F5"/>
<path fill-rule="evenodd" clip-rule="evenodd" d="M49.1919 3.66113V41.7338H53.4876V3.66113H49.1919Z" fill="#D2D4F5"/>
<path fill-rule="evenodd" clip-rule="evenodd" d="M56.8081 3.66113V41.7338H61.1038V3.66113H56.8081Z" fill="#D2D4F5"/>
</g>
<defs>
<clipPath id="clip0_172_1023">
<rect width="65" height="45" fill="white"/>
</clipPath>
</defs>
</svg>
