<svg width="31" height="51" viewBox="0 0 31 51" fill="none" xmlns="http://www.w3.org/2000/svg">
<g clip-path="url(#clip0_172_1010)">
<path d="M14.7555 47.5051C13.9205 46.0535 13.0786 44.6672 12.2414 43.3392C9.91508 43.6071 7.90655 44.1616 6.46626 44.8909C5.16048 45.5526 4.38119 46.3192 4.38119 47.0787C4.38119 48.013 5.51534 48.9333 7.34528 49.6649C9.41179 50.4921 12.2947 51 15.4977 51C18.7007 51 21.5836 50.4874 23.6501 49.6649C25.48 48.9333 26.6142 48.013 26.6142 47.0787C26.6142 46.3168 25.8349 45.5549 24.5291 44.8909C23.0911 44.1593 21.0803 43.6071 18.754 43.3392C17.9144 44.6696 17.0725 46.0559 16.2375 47.5098C16.001 47.9198 15.4768 48.0596 15.0686 47.822C14.9318 47.7451 14.8274 47.6332 14.7555 47.5051ZM15.5 7.91946C17.6013 7.91946 19.5031 8.77687 20.8831 10.1609C22.2654 11.5448 23.1166 13.46 23.1166 15.571C23.1166 17.6819 22.2654 19.5971 20.8855 20.9811C19.5078 22.3651 17.6013 23.2225 15.5 23.2225C13.3987 23.2225 11.4945 22.3651 10.1169 20.9788C8.73687 19.5971 7.88568 17.6842 7.88568 15.571C7.88568 13.4577 8.73687 11.5448 10.1169 10.1609L10.1679 10.1143C11.5432 8.75823 13.4288 7.92179 15.5023 7.92179L15.5 7.91946ZM8.78557 35.0259C10.8985 38.1201 13.2039 41.5032 15.5 45.3779C17.7961 41.5008 20.1038 38.1201 22.2167 35.0236C27.143 27.8055 31 22.153 31 15.571C31 11.2699 29.2651 7.37658 26.4611 4.55969C23.657 1.74279 19.7815 0 15.5 0C11.2185 0 7.34064 1.74279 4.5389 4.55969C1.73485 7.37425 0 11.2699 0 15.571C0 22.1554 3.85702 27.8078 8.78326 35.0236L8.78557 35.0259Z" fill="#D2D4F5"/>
</g>
<defs>
<clipPath id="clip0_172_1010">
<rect width="31" height="51" fill="white"/>
</clipPath>
</defs>
</svg>
