<svg width="33" height="50" viewBox="0 0 33 50" fill="none" xmlns="http://www.w3.org/2000/svg">
<g clip-path="url(#clip0_172_973)">
<path d="M0.0035524 45.6503H32.9982V46.7369C32.9982 48.5343 31.5187 49.9982 29.698 49.9982H3.30018C1.48135 49.9982 0 48.5361 0 46.7369V45.6503H0.0035524ZM33 20.6512V43.4773H0.0035524V20.6512H33.0018H33ZM15.2611 30.0333C12.6821 27.4846 8.2611 27.7286 8.2611 27.7286C8.2611 27.7286 8.01776 32.0993 10.5933 34.6463C13.1723 37.195 17.5933 36.951 17.5933 36.951C17.5933 36.951 17.8366 32.5803 15.2611 30.0333ZM24.1954 26.37C24.1954 26.37 19.7726 26.1295 17.1954 28.6747C17.1563 28.7134 17.1279 28.7537 17.0906 28.7923C18.7904 30.6424 19.4387 32.991 19.6732 34.7253C20.4547 34.3883 21.2149 33.9266 21.8615 33.2877C24.4405 30.739 24.1936 26.37 24.1936 26.37H24.1954ZM7.70515 5.43444H25.3037C25.9112 5.43444 26.4032 4.94822 26.4032 4.3479V1.08654C26.4032 0.486221 25.9112 0 25.3037 0H7.70515C7.09769 0 6.60568 0.486221 6.60568 1.08654V4.3479C6.60568 4.94822 7.09769 5.43444 7.70515 5.43444ZM30.4156 14.1057L24.2007 10.2668V7.60751H8.80462V10.2668L2.5897 14.1057C1.03908 15.0623 0.0976909 16.6842 0.0195382 18.4781H32.9858C32.9076 16.6842 31.9663 15.0623 30.4174 14.1057H30.4156Z" fill="#D2D4F5"/>
</g>
<defs>
<clipPath id="clip0_172_973">
<rect width="33" height="50" fill="white"/>
</clipPath>
</defs>
</svg>
