<svg width="48" height="48" viewBox="0 0 48 48" fill="none" xmlns="http://www.w3.org/2000/svg">
<g clip-path="url(#clip0_172_993)">
<path d="M24.001 0C10.7636 0 0 10.7636 0 24.001C0 37.2385 10.7636 48.0021 24.001 48.0021C37.2385 48.0021 48.0021 37.2385 48.0021 24.001C48.0021 10.7636 37.2385 0 24.001 0ZM45.5742 24.7058H45.3734C43.6042 24.505 42.6945 24.4026 42.1404 24.0993C41.1805 23.5431 40.9295 22.7839 40.6242 22.8885C40.3712 22.9889 40.321 23.7982 40.6765 24.3043C40.9295 24.7079 41.3833 24.9107 41.8392 25.1136C42.293 25.3143 42.5461 25.3143 42.7489 25.5674C42.8012 25.6197 43.0521 25.8706 43.0521 26.224C43.1525 27.1337 41.789 27.8928 41.4858 28.0434C40.9797 28.3466 40.275 28.7502 39.6664 28.447C39.313 28.2943 39.3632 27.9409 38.8069 27.0312C36.7345 23.6957 37.7969 25.6155 37.2406 24.7581C36.9374 24.3043 36.7345 23.8484 36.4313 23.8986C36.2306 23.8986 36.1281 24.2018 36.0779 24.252C35.7747 24.9086 36.5317 25.4628 37.5418 27.7381C37.7948 28.2943 38.098 29.0012 38.8049 29.5073C38.9575 29.6076 39.2587 29.8105 39.6644 29.961C40.4214 30.2141 40.8271 29.961 40.9275 30.1618C41.1282 30.4148 40.4214 31.1217 39.3109 32.5354C37.7446 34.5555 37.6944 35.1138 37.6421 35.3648C37.5899 35.7182 37.6421 36.0716 37.5418 36.8286C37.4414 37.4853 37.3891 37.8387 37.2385 38.0917C36.8349 38.7484 36.2285 38.5455 35.7747 39.2022C35.4714 39.656 35.622 39.8588 35.3711 40.618C35.1201 41.3771 34.7144 41.8288 34.361 42.3349C34.108 42.6883 33.8549 42.9413 33.6542 43.2445C32.9975 43.598 32.3388 43.851 31.634 44.1542C30.7745 43.851 30.0677 42.7385 29.9171 41.7807C29.8168 41.0237 30.1179 40.7183 29.8168 40.0115C29.5637 39.4552 29.1601 39.2022 29.1601 38.5957C29.1601 38.2423 29.2605 38.1419 29.4131 37.6861C29.5135 37.3828 30.0196 35.9692 29.5135 34.7541C29.2605 34.1979 29.0597 34.2481 28.8569 33.6437C28.6038 32.8867 28.9092 32.5333 28.7042 32.0774C28.401 31.4709 27.5938 31.2681 27.0877 31.1677C25.925 30.9146 25.5214 31.3684 23.8045 31.2681C23.2984 31.2158 22.945 31.2158 22.5414 31.0673C22.1879 30.9669 21.0252 30.5612 20.6216 29.5512C20.5212 29.2981 20.5212 29.1476 20.5212 28.5411C20.469 26.6214 20.4209 25.6615 20.6216 25.3081C20.6739 25.1554 21.1779 24.6012 22.0855 23.4385C22.3385 23.1353 22.6919 22.6815 23.2963 22.1754C23.5995 21.9224 23.6999 21.822 23.9028 21.7216C24.5092 21.4184 24.8626 21.6693 25.9229 21.6212C26.3767 21.6212 26.9329 21.5208 27.6921 21.4686C28.0455 21.4163 28.3989 21.3682 28.7544 21.5208C28.9552 21.5731 29.0576 21.6735 29.4612 21.9746C30.4713 22.8341 30.5717 22.9847 30.9251 23.0851C31.0778 23.1374 31.3789 23.0851 31.9352 22.9847C32.7445 22.8843 32.8449 22.7317 33.2986 22.7839C33.5517 22.7839 33.4513 22.8362 34.3087 23.037C34.5095 23.0893 35.0155 23.2377 35.7245 23.3402C36.4313 23.4406 36.5338 23.3925 36.6342 23.3402C36.9374 23.1395 36.9876 22.6836 36.9876 22.4305C36.9876 22.1775 37.0399 21.6212 36.6844 21.3201C36.2306 20.9165 35.6743 21.5208 34.8148 21.0169C34.4112 20.7638 34.2083 20.4606 33.7524 20.5108C33.4492 20.5108 33.2986 20.6634 32.893 20.6112C32.7403 20.6112 32.5395 20.5589 32.3367 20.4585C32.0836 20.3581 32.0836 20.2055 31.68 19.852C31.2764 19.4484 31.174 19.346 30.9732 19.346C30.67 19.346 30.6198 19.6492 30.3166 19.6492C30.1639 19.6492 30.0635 19.5488 29.8628 19.3962C29.7101 19.2435 29.1559 18.8399 28.5474 18.5868C28.4512 18.4865 28.2483 18.4342 28.0455 18.4342C27.8928 18.4342 27.6419 18.3819 27.3386 18.4865C27.186 18.5388 27.0856 18.6391 26.682 19.0929C26.429 19.3962 26.2282 19.599 26.1257 19.7998C25.7221 20.356 25.5193 20.6091 25.4189 20.6593C25.3666 20.7115 24.9128 21.0629 24.2562 21.1653C24.1035 21.1653 23.7501 21.2176 23.6497 21.0127C23.5974 20.9604 23.5974 20.86 23.4971 20.8119C23.4448 20.7596 23.3967 20.8119 23.3444 20.8119C23.1917 20.8119 23.0914 20.7596 22.991 20.7115C22.8906 20.6593 22.5372 20.4585 22.4347 20.0549C22.3343 19.7517 22.4347 19.4986 22.487 19.3481C22.5393 19.2477 22.6397 18.842 23.0433 18.591C23.1959 18.4907 23.3967 18.4907 23.8526 18.4384C24.459 18.3861 24.5594 18.4907 24.7623 18.338C25.0655 18.1853 25.1659 17.8319 25.216 17.6312C25.3687 17.0749 25.1157 16.8219 25.3164 16.5688C25.5695 16.2656 26.0233 16.5688 26.5272 16.2656C26.8305 16.0648 26.7803 15.9122 27.3867 15.0548C27.8928 14.3479 28.0936 14.2455 28.2964 14.2455C28.5495 14.2455 28.6498 14.5487 28.8025 14.4985C29.0555 14.4462 29.0033 13.9924 29.3086 13.7917C29.3609 13.7394 29.4612 13.639 29.4612 13.5386C29.409 13.135 27.5917 13.3379 27.4411 12.6791C27.3888 12.4784 27.4411 12.2253 27.7945 11.6691C28.1981 11.0626 29.1099 9.59665 31.0778 8.9421C31.5838 8.74134 31.9874 8.68906 32.7466 8.58868C33.9093 8.43602 34.5157 8.28545 35.0197 8.58868C35.2205 8.74134 35.6262 9.04248 36.3351 9.59874C36.6885 9.90197 36.7387 9.95216 36.8914 10.0024C37.4978 10.3056 38.0541 10.2554 38.4577 10.2031C39.1144 10.1027 39.7208 9.89988 40.1265 9.64684C43.5624 13.4884 45.6327 18.5408 45.6327 24.0471C45.5804 24.2478 45.5804 24.5008 45.5804 24.7016L45.5742 24.7058ZM3.33551 29.6578C3.28323 29.6076 3.18285 29.5574 3.13266 29.5052C2.98 28.8987 2.82943 28.2943 2.72905 27.6858C2.82943 27.8384 3.03228 27.989 3.28532 28.1396C3.58855 28.2922 3.7914 28.3403 4.14482 28.4428C5.15488 28.6436 5.5083 28.5955 6.16495 28.6959C6.72121 28.7962 7.27539 28.9991 8.49039 29.5052C8.74343 29.6055 9.19723 29.8084 9.7535 30.0614C11.2174 30.7181 11.4223 31.0213 11.5227 31.1719C11.7757 31.5755 11.6753 31.7281 11.9765 32.2342C12.2797 32.688 12.5829 32.941 12.7335 33.0435C13.593 33.65 14.097 33.3969 15.312 33.8528C15.8683 34.1059 16.7758 34.4593 16.8281 35.0156C16.8804 35.5718 15.9184 35.7726 15.6173 36.8349C15.4646 37.2887 15.6173 37.2887 15.5169 38.1503C15.3643 38.9596 15.3162 39.5661 14.8603 40.0199C14.3542 40.5761 13.9004 40.3231 13.2939 40.9797C13.0932 41.2328 13.0932 41.3332 12.6875 41.8894C12.5871 41.9898 12.5348 42.0902 12.4345 42.1926C8.49248 39.6623 5.4602 35.9733 3.79349 31.6298C3.89387 30.9209 3.89387 30.0635 3.33969 29.6578H3.33551ZM5.65887 12.6833C6.72121 11.0145 7.98431 9.45027 9.44818 8.13488C9.50046 8.33564 9.54855 8.53849 9.60084 8.79153C9.65312 9.19514 9.7535 10.3579 9.09476 11.0145C8.58868 11.5206 8.08469 11.2675 7.77937 11.8238C7.52634 12.2274 7.57862 12.8862 7.87975 13.1873C8.18298 13.4905 8.43602 13.2877 8.9421 13.5407C9.49837 13.8439 9.34571 14.2475 9.95216 14.8561C10.5586 15.4124 10.912 15.2597 11.163 15.7156C11.416 16.2217 11.3156 16.9787 10.8598 17.4325C10.406 17.8361 9.79741 17.8863 9.3959 17.7859C8.9421 17.6855 8.73925 17.3823 8.5364 17.4827C8.28336 17.5831 8.38374 17.9365 8.13279 18.3422C7.82956 18.8483 7.32349 18.796 6.51627 19.2519C5.90982 19.6053 5.5564 20.0089 5.25317 20.3142C4.49614 21.1737 4.54633 21.6296 3.99007 22.1336C3.73703 22.3866 3.28323 22.6898 2.5743 22.8404C2.72696 19.9608 3.4338 17.2317 4.59443 14.7557C5.05032 14.1493 5.40374 13.3922 5.65678 12.6854L5.65887 12.6833ZM24.252 13.0848C24.4047 13.0848 24.4527 13.3881 24.7581 13.9443C24.9107 14.1451 24.8584 14.097 25.0613 14.3981C25.3645 14.8519 25.5151 15.105 25.5674 15.358C25.6197 15.7114 25.467 16.1673 25.2641 16.2175C25.1638 16.2698 25.0634 16.1652 24.8605 16.0648C24.5573 15.9122 24.5071 15.8118 24.3043 15.7114C24.1516 15.611 24.1035 15.6591 23.5974 15.5587C23.0412 15.4584 22.7881 15.4061 22.6877 15.2555C22.5874 15.0548 22.74 14.7494 22.9408 14.4462C23.1938 14.0426 23.2942 14.0928 23.8003 13.4863C24.1035 13.1873 24.1558 13.0848 24.2562 13.0848H24.252ZM18.1372 3.58855C18.338 3.58855 19.1473 3.64083 20.2096 3.74121C21.525 3.89387 22.4326 4.04444 22.5351 4.44805C22.5874 4.80146 22.029 4.90184 21.4246 5.81153C21.0712 6.36779 21.1716 6.46817 20.6153 7.6309C20.1615 8.54058 19.9587 8.79362 19.7558 8.99438C19.4024 9.29761 19.3021 9.19514 18.6454 9.60084C17.5831 10.1571 17.6855 10.4603 16.9285 10.7113C16.069 11.0145 15.7658 10.7636 15.312 11.1651C15.0088 11.4181 15.1112 11.6189 14.7055 12.2755C14.2998 12.9322 14.0489 13.3379 13.6955 13.386C13.0388 13.4863 12.2316 12.4763 12.0267 11.5666C11.9263 10.9601 12.0789 10.3558 12.127 10.2031C12.3801 9.3938 12.7837 9.24324 12.7837 8.68697C12.7837 8.23317 12.5306 7.92994 12.0769 7.37158C11.8761 7.11855 11.6231 6.86551 11.3198 6.56228C13.0367 5.29918 15.0088 4.28911 17.0791 3.58228C17.4304 3.58646 17.834 3.58646 18.1372 3.58646V3.58855Z" fill="#D2D4F5"/>
</g>
<defs>
<clipPath id="clip0_172_993">
<rect width="48" height="48" fill="white"/>
</clipPath>
</defs>
</svg>
