<svg width="52" height="52" viewBox="0 0 52 52" fill="none" xmlns="http://www.w3.org/2000/svg">
<g clip-path="url(#clip0_172_1018)">
<path d="M26 52C11.6639 52 0 40.3361 0 26C0 11.6639 11.6639 0 26 0C40.3361 0 52 11.6639 52 26C52 40.3361 40.3361 52 26 52ZM26 2.25027C12.9039 2.25027 2.25027 12.9039 2.25027 26C2.25027 39.0961 12.9039 49.7497 26 49.7497C39.0961 49.7497 49.7497 39.0961 49.7497 26C49.7497 12.9039 39.0961 2.25027 26 2.25027Z" fill="#D2D4F5"/>
<path d="M14.05 42.7811L26.2414 26.0001V5.25781C37.6966 5.25781 46.9813 14.5449 46.9813 25.9978C46.9813 37.4507 37.6943 46.7378 26.2414 46.7378C21.6846 46.7378 17.4723 45.2681 14.05 42.7787V42.7811Z" fill="#D2D4F5"/>
</g>
<defs>
<clipPath id="clip0_172_1018">
<rect width="52" height="52" fill="white"/>
</clipPath>
</defs>
</svg>
