<svg width="51" height="51" viewBox="0 0 51 51" fill="none" xmlns="http://www.w3.org/2000/svg">
<g clip-path="url(#clip0_172_1003)">
<path d="M0.06447 20.5811C0.227872 21.1192 0.662845 21.5308 1.20599 21.6619C3.94931 22.2621 6.60517 23.198 9.11835 24.4444C9.30016 23.2877 9.8295 22.2115 10.6258 21.3561C13.9767 16.3798 17.6038 11.599 21.4955 7.04122C16.0825 6.73307 10.7938 8.736 6.95039 12.5579L0.46262 19.0404H0.460318C0.0552642 19.4428 -0.0966311 20.0315 0.06447 20.5788V20.5811Z" fill="#D2D4F5"/>
<path d="M26.5793 41.8914C27.8267 44.4025 28.7634 47.0562 29.3618 49.7927C29.4953 50.34 29.9095 50.7747 30.4481 50.9333C30.9935 51.0966 31.5827 50.9425 31.9854 50.5378L38.4732 44.053H38.4755C42.2982 40.215 44.3051 34.9306 43.9967 29.522C39.4306 33.4106 34.6505 37.037 29.6702 40.3806C28.814 41.1808 27.737 41.7051 26.5793 41.8891V41.8914Z" fill="#D2D4F5"/>
<path d="M50.2221 1.9614C50.0818 1.398 49.6445 0.95648 49.0806 0.820805C40.1763 -1.43738 30.7335 1.03697 24.0892 7.3769C23.8844 7.55166 23.6819 7.75863 23.4886 7.94719C22.9915 8.4439 22.3471 9.20506 21.583 10.1433C19.1665 13.1166 15.7396 17.8561 13.2494 21.2801C12.8973 21.7469 12.5751 22.1885 12.2966 22.584C11.9883 23.0094 11.7098 23.3727 11.4888 23.6832H11.4911C11.0332 24.2995 11.0953 25.1595 11.6361 25.7045C11.6937 25.7666 11.7558 25.8195 11.8249 25.8678C11.8548 25.8977 11.9123 25.9276 11.9399 25.9575C11.9837 25.9713 12.0136 26.0012 12.055 26.0173H12.0573C12.9295 26.5278 13.7765 27.0912 14.5912 27.696L14.605 27.7097C17.972 30.1059 20.911 33.0448 23.3068 36.4044L23.3229 36.4205C23.9235 37.2369 24.4805 38.09 24.9937 38.9662C25.0236 38.9961 25.0513 39.0283 25.0674 39.0697C25.0973 39.1294 25.141 39.1731 25.1709 39.2329C25.6957 39.909 26.6715 40.0332 27.3527 39.5112C27.6611 39.2628 28.0132 39.0007 28.4229 38.704C29.3596 38.0004 30.531 37.1518 31.8359 36.2297C34.837 34.0497 38.3835 31.5018 40.9036 29.4528C41.7828 28.7193 42.5146 28.0754 43.0854 27.535C43.2741 27.3464 43.4812 27.1395 43.6561 26.9348C49.9322 20.2591 52.4016 10.8654 50.2198 1.96829L50.2221 1.9614ZM38.5906 21.3422C36.7909 23.1405 34.0821 23.6786 31.7277 22.7036C29.3734 21.7309 27.8406 19.4359 27.8406 16.8902C27.8406 14.3446 29.3757 12.0496 31.7277 11.0769C34.0821 10.1019 36.7909 10.64 38.5906 12.4406C41.0486 14.8988 41.0486 18.8794 38.5906 21.3376V21.3422Z" fill="#D2D4F5"/>
<path d="M8.93187 32.7368C7.20119 34.4661 1.63629 43.0113 4.81459 46.1893C7.99288 49.365 16.5473 43.8046 18.278 42.0753C20.9178 39.4745 21.0006 35.2502 18.4714 32.5482C15.7649 30.021 11.5348 30.1038 8.93187 32.7368Z" fill="#D2D4F5"/>
</g>
<defs>
<clipPath id="clip0_172_1003">
<rect width="51" height="51" fill="white"/>
</clipPath>
</defs>
</svg>
