<svg width="48" height="53" viewBox="0 0 48 53" fill="none" xmlns="http://www.w3.org/2000/svg">
<g clip-path="url(#clip0_172_1045)">
<path fill-rule="evenodd" clip-rule="evenodd" d="M24.6001 0.399152L26.0084 3.82499L29.7246 4.09726C29.9935 4.11576 30.2091 4.28758 30.2943 4.54135C30.3769 4.79511 30.3023 5.05945 30.0973 5.23127L27.2516 7.62354L28.1407 11.2186C28.2046 11.4776 28.1088 11.7367 27.8931 11.8926C27.6748 12.0486 27.398 12.0592 27.1717 11.9191L24.0038 9.97087L20.836 11.9191C20.607 12.0592 20.3302 12.0486 20.1145 11.8926C19.8962 11.7367 19.8031 11.4776 19.867 11.2186L20.7561 7.62354L17.9103 5.23127C17.7053 5.05945 17.6281 4.79511 17.7133 4.54135C17.7959 4.28758 18.0141 4.1184 18.283 4.09726L21.9993 3.82499L23.4075 0.399152C23.5087 0.150673 23.7376 0 24.0065 0C24.2754 0 24.5043 0.153317 24.6081 0.399152H24.6055H24.6001ZM24.8371 34.5491L29.6315 40.7822L47.7097 37.0603C47.8348 37.0339 47.928 36.9546 47.9732 36.8357C48.0185 36.7167 47.9998 36.5951 47.9226 36.4947L43.4716 30.7109L24.8344 34.5491H24.8371ZM41.326 30.1875L23.9985 33.7561L6.66569 30.1875L23.9346 26.6084L41.3233 30.1902H41.326V30.1875ZM4.52538 30.7109L0.0743751 36.4947C-0.00282525 36.5951 -0.0214598 36.7167 0.0237956 36.8357C0.069051 36.9546 0.162224 37.0339 0.287342 37.0603L18.3655 40.7822L23.16 34.5491L4.52271 30.7109H4.52538ZM24.475 35.6356L29.0538 41.5911C29.1736 41.7471 29.3732 41.8079 29.5543 41.7629L41.3074 39.3416V49.0534C41.3074 49.3389 41.1104 49.5768 40.8309 49.635L24.4724 53.0026V35.6382L24.475 35.6356ZM23.522 53L7.1635 49.6323C6.88398 49.5742 6.68699 49.3363 6.68699 49.0508V39.339L18.4667 41.7656C18.6504 41.8026 18.8341 41.7286 18.9405 41.5885L23.5193 35.6329V52.9974L23.522 53ZM7.03838 9.40254L8.23099 12.305L11.3802 12.5376C11.6065 12.5535 11.7929 12.6989 11.8621 12.913C11.9313 13.1271 11.8674 13.3518 11.6944 13.4972L9.28252 15.522L10.0359 18.5672C10.0891 18.7866 10.0093 19.006 9.82558 19.1382C9.6419 19.2703 9.40763 19.2809 9.2133 19.1593L6.52992 17.5098L3.84388 19.1593C3.64955 19.2783 3.41529 19.2703 3.2316 19.1382C3.04792 19.006 2.96806 18.7866 3.0213 18.5672L3.77467 15.522L1.36282 13.4972C1.18979 13.3518 1.1259 13.1271 1.19511 12.913C1.26433 12.6989 1.45067 12.5535 1.67695 12.5376L4.82619 12.305L6.0188 9.40254C6.10399 9.19372 6.29832 9.06419 6.52726 9.06419C6.7562 9.06419 6.95053 9.19372 7.03572 9.40254H7.03838ZM41.9782 9.40254L43.1708 12.305L46.3201 12.5376C46.5463 12.5535 46.7327 12.6989 46.8019 12.913C46.8711 13.1271 46.8072 13.3518 46.6342 13.4972L44.2223 15.522L44.9757 18.5672C45.029 18.7866 44.9491 19.006 44.7654 19.1382C44.5817 19.2703 44.3475 19.2809 44.1531 19.1593L41.4697 17.5098L38.7864 19.1593C38.592 19.2783 38.3578 19.2703 38.1741 19.1382C37.9904 19.006 37.9105 18.7866 37.9638 18.5672L38.7172 15.522L36.3053 13.4972C36.1323 13.3518 36.0684 13.1271 36.1376 12.913C36.2068 12.6989 36.3932 12.5535 36.6194 12.5376L39.7687 12.305L40.9613 9.40254C41.0465 9.19372 41.2408 9.06419 41.4697 9.06419C41.6987 9.06419 41.893 9.19372 41.9782 9.40254ZM23.5247 14.1527C23.5247 13.891 23.7376 13.6769 24.0038 13.6769C24.27 13.6769 24.483 13.8884 24.483 14.1527V22.8389C24.483 23.1006 24.27 23.3147 24.0038 23.3147C23.7376 23.3147 23.5247 23.1032 23.5247 22.8389V14.1527ZM14.3724 18.7734C14.2367 18.5487 14.3085 18.2579 14.5348 18.1231C14.7611 17.9883 15.0539 18.0597 15.1897 18.2843L18.898 24.3959C19.0337 24.6205 18.9618 24.9113 18.7356 25.0461C18.5093 25.1809 18.2165 25.1096 18.0807 24.8849L14.3724 18.7734ZM6.29566 22.7094L13.0387 26.5767C13.2677 26.7088 13.5578 26.6295 13.6909 26.4048C13.824 26.1775 13.7442 25.8894 13.5179 25.7572L6.77484 21.8899C6.5459 21.7578 6.25573 21.8371 6.12263 22.0617C5.98952 22.2891 6.06938 22.5772 6.29566 22.7094ZM32.8153 18.287C32.9511 18.0623 33.2439 17.9909 33.4702 18.1257C33.6965 18.2605 33.7683 18.5513 33.6326 18.776L29.9243 24.8875C29.7885 25.1122 29.4957 25.1836 29.2694 25.0488C29.0431 24.914 28.9713 24.6232 29.107 24.3985L32.8153 18.287ZM41.2328 21.8926C41.4618 21.7604 41.7519 21.8397 41.885 22.0644C42.0181 22.2917 41.9383 22.5798 41.712 22.712L35.5732 26.2304C35.3443 26.3625 35.0541 26.2832 34.921 26.0586C34.7879 25.8312 34.8678 25.5431 35.0941 25.4109L41.2328 21.8926Z" fill="#D2D4F5"/>
</g>
<defs>
<clipPath id="clip0_172_1045">
<rect width="48" height="53" fill="white"/>
</clipPath>
</defs>
</svg>
