<svg width="50" height="50" viewBox="0 0 50 50" fill="none" xmlns="http://www.w3.org/2000/svg">
<g clip-path="url(#clip0_172_977)">
<g clip-path="url(#clip1_172_977)">
<path d="M25 50C11.2153 50 0 38.7847 0 25C0 11.2153 11.2153 0 25 0C38.7847 0 50 11.2153 50 25C50 38.7847 38.7847 50 25 50ZM25 2.16372C12.4076 2.16372 2.16372 12.4076 2.16372 25C2.16372 37.5924 12.4076 47.8363 25 47.8363C37.5924 47.8363 47.8363 37.5924 47.8363 25C47.8363 12.4076 37.5924 2.16372 25 2.16372Z" fill="#D2D4F5"/>
<path d="M25 4.82764C36.0891 4.82764 45.0775 13.8161 45.0775 24.9052C45.0775 31.5834 41.8184 37.4998 36.8013 41.1489L25 24.9052V4.82764Z" fill="#D2D4F5"/>
</g>
</g>
<defs>
<clipPath id="clip0_172_977">
<rect width="50" height="50" fill="white"/>
</clipPath>
<clipPath id="clip1_172_977">
<rect width="50" height="50" fill="white"/>
</clipPath>
</defs>
</svg>
