<svg width="39" height="50" viewBox="0 0 39 50" fill="none" xmlns="http://www.w3.org/2000/svg">
<g clip-path="url(#clip0_172_989)">
<path d="M28.7109 8.95281H34.1002L26.7887 1.13549V7.00956C26.7887 8.08143 27.6498 8.95281 28.709 8.95281H28.7109ZM17.5931 47.116L22.2337 38.9112C19.0923 33.6154 22.8243 26.6888 29.0805 26.6888C31.5018 26.6888 33.4544 27.6816 35.0813 29.4417V10.4565H28.7109C26.8401 10.4565 25.3008 8.90076 25.3008 7.00571V0H1.92028C0.866794 0 0 0.875231 0 1.94325V45.1689C0 46.235 0.864889 47.1121 1.92028 47.1121H17.5892L17.5911 47.1141L17.5931 47.116ZM6.10566 12.9453C5.12837 12.9453 5.12837 11.4397 6.10566 11.4397H20.0448C21.0221 11.4397 21.0221 12.9453 20.0448 12.9453H6.10566ZM6.10566 24.3098C5.12837 24.3098 5.12837 22.8042 6.10566 22.8042H25.0456C26.0248 22.8042 26.0248 24.3098 25.0456 24.3098H6.10566ZM16.3948 28.1963C17.3721 28.1963 17.3721 29.702 16.3948 29.702H6.10375C5.12647 29.702 5.12647 28.1963 6.10375 28.1963H16.3948ZM29.5548 16.8318C30.534 16.8318 30.534 18.3374 29.5548 18.3374H6.10566C5.12837 18.3374 5.12837 16.8318 6.10566 16.8318H29.5548ZM23.613 50L27.7336 42.7205C25.92 42.4082 24.4664 41.5523 23.2053 40.2221L19.1609 47.3705C23.0053 46.7478 22.2128 46.2851 23.613 49.9981V50ZM34.5479 50C35.9481 46.287 35.1556 46.7497 39 47.3724L34.9556 40.224C33.6983 41.5542 32.2352 42.4102 30.4273 42.7225L34.5479 50.0019V50ZM29.0805 28.1925C25.4971 28.1925 22.59 31.1343 22.59 34.7606C22.59 38.3868 25.4952 41.3287 29.0805 41.3287C32.6657 41.3287 35.5709 38.3887 35.5709 34.7606C35.5709 31.1324 32.6657 28.1925 29.0805 28.1925Z" fill="#D2D4F5"/>
</g>
<defs>
<clipPath id="clip0_172_989">
<rect width="39" height="50" fill="white"/>
</clipPath>
</defs>
</svg>
