<svg width="603" height="123" viewBox="0 0 603 123" fill="none" xmlns="http://www.w3.org/2000/svg">
<g clip-path="url(#clip0_172_844)">
<path d="M0 110.769V0.829086H20.7286V110.769H0Z" fill="#7084DE"/>
<path d="M68.006 110.769C61.5124 110.769 55.8316 109.595 50.9634 107.239C46.0953 104.883 42.2944 101.485 39.5771 97.0275C36.8516 92.5784 35.4971 87.2673 35.4971 81.0861C35.4971 76.5877 36.3098 72.6557 37.927 69.3065C39.5525 65.9574 41.7772 63.1828 44.6012 60.9829C47.4252 58.7829 50.5694 57.1576 54.0255 56.1151V53.9151C48.788 52.3472 44.4945 49.6219 41.1451 45.7474C37.7957 41.8729 36.121 36.7424 36.121 30.356C36.121 23.9696 37.533 18.5764 40.3652 14.1765C43.1892 9.77663 47.0394 6.45208 51.9075 4.20288C56.7757 1.95369 62.3498 0.829086 68.6381 0.829086H85.7546V17.1645H72.2502C67.5381 17.1645 63.6387 18.4205 60.5519 20.9323C57.4652 23.4442 55.9219 27.1628 55.9219 32.0798C55.9219 35.5357 56.6771 38.3595 58.1959 40.5595C59.7146 42.7594 61.7013 44.3848 64.1641 45.4273C66.6269 46.478 69.3195 46.9951 72.2502 46.9951H87.4868V32.8597H107.279V46.9951H121.728V63.3306H107.279V110.761H68.0142L68.006 110.769ZM71.6181 94.4335H87.4785V63.3388H71.6181C67.0127 63.3388 63.1379 64.6522 59.9937 67.2626C56.8495 69.8811 55.2816 73.7557 55.2816 78.8861C55.2816 84.0166 56.9316 88.0225 60.2318 90.5836C63.5319 93.153 67.3246 94.4335 71.6181 94.4335Z" fill="#7084DE"/>
<path d="M134.288 110.769V0.829086H155.017V110.769H134.288Z" fill="#7084DE"/>
<path d="M227.546 44.7213V0.878342H235.813V44.7213H227.546Z" fill="#7084DE"/>
<path d="M244.334 44.7213V13.6512H252.1V17.7227H253.225C253.726 16.6391 254.662 15.6048 256.041 14.6198C257.42 13.6347 259.505 13.1504 262.305 13.1504C264.726 13.1504 266.844 13.7004 268.667 14.8086C270.481 15.9168 271.893 17.4354 272.895 19.3809C273.896 21.3263 274.397 23.592 274.397 26.1777V44.7131H266.508V26.8016C266.508 24.4621 265.933 22.7136 264.784 21.5398C263.635 20.3741 261.993 19.7831 259.866 19.7831C257.445 19.7831 255.565 20.5876 254.227 22.1965C252.889 23.8054 252.224 26.0464 252.224 28.9277V44.7131H244.326L244.334 44.7213Z" fill="#7084DE"/>
<path d="M282.918 44.7213V13.6512H290.684V17.7227H291.809C292.31 16.6391 293.245 15.6048 294.625 14.6198C296.004 13.6347 298.089 13.1504 300.888 13.1504C303.31 13.1504 305.428 13.7004 307.251 14.8086C309.065 15.9168 310.477 17.4354 311.478 19.3809C312.48 21.3263 312.981 23.592 312.981 26.1777V44.7131H305.092V26.8016C305.092 24.4621 304.517 22.7136 303.368 21.5398C302.218 20.3741 300.576 19.7831 298.45 19.7831C296.028 19.7831 294.148 20.5876 292.81 22.1965C291.472 23.8054 290.807 26.0464 290.807 28.9277V44.7131H282.91L282.918 44.7213Z" fill="#7084DE"/>
<path d="M336.287 45.5996C333.2 45.5996 330.417 44.9758 327.955 43.7198C325.492 42.4639 323.546 40.6498 322.126 38.2692C320.706 35.8887 320 33.032 320 29.6911V28.6896C320 25.3486 320.706 22.492 322.126 20.1115C323.546 17.7309 325.484 15.9168 327.955 14.6608C330.417 13.4049 333.192 12.781 336.287 12.781C339.382 12.781 342.157 13.4049 344.62 14.6608C347.082 15.9168 349.028 17.7309 350.448 20.1115C351.868 22.492 352.574 25.3569 352.574 28.6896V29.6911C352.574 33.032 351.86 35.8887 350.448 38.2692C349.028 40.6498 347.091 42.4639 344.62 43.7198C342.157 44.9758 339.382 45.5996 336.287 45.5996ZM336.287 38.5812C338.709 38.5812 340.712 37.8013 342.305 36.2335C343.889 34.6656 344.685 32.4246 344.685 29.5023V28.8784C344.685 25.9561 343.905 23.7151 342.337 22.1472C340.769 20.5794 338.758 19.7995 336.295 19.7995C333.832 19.7995 331.87 20.5794 330.286 22.1472C328.702 23.7151 327.905 25.9561 327.905 28.8784V29.5023C327.905 32.4246 328.702 34.6656 330.286 36.2335C331.87 37.8013 333.874 38.5812 336.295 38.5812H336.287Z" fill="#7084DE"/>
<path d="M365.479 44.7213L355.579 13.6512H363.969L371.177 38.9587H372.301L379.509 13.6512H387.899L377.999 44.7213H365.471H365.479Z" fill="#7084DE"/>
<path d="M402.183 45.5996C399.967 45.5996 397.988 45.2138 396.231 44.4422C394.475 43.6706 393.087 42.546 392.069 41.0602C391.043 39.5826 390.534 37.7685 390.534 35.6424C390.534 33.5163 391.043 31.7268 392.069 30.2903C393.095 28.8538 394.516 27.762 396.33 27.0314C398.144 26.3009 400.221 25.9315 402.561 25.9315H411.082V24.1748C411.082 22.7136 410.622 21.5152 409.703 20.5711C408.784 19.6353 407.322 19.1592 405.319 19.1592C403.316 19.1592 401.896 19.6107 400.935 20.5055C399.975 21.4002 399.351 22.5659 399.055 23.986L391.79 21.5398C392.291 19.9555 393.095 18.5025 394.204 17.1891C395.312 15.8757 396.79 14.8086 398.653 13.9959C400.509 13.1833 402.774 12.7728 405.451 12.7728C409.547 12.7728 412.781 13.7989 415.162 15.8429C417.543 17.8869 418.733 20.8502 418.733 24.7412V36.332C418.733 37.5879 419.316 38.2118 420.49 38.2118H422.994V44.7295H417.732C416.188 44.7295 414.916 44.3519 413.914 43.6049C412.913 42.8497 412.412 41.8482 412.412 40.6005V40.5348H411.222C411.058 41.0356 410.68 41.6923 410.097 42.5049C409.514 43.3176 408.595 44.04 407.339 44.6638C406.083 45.2877 404.375 45.5996 402.2 45.5996H402.183ZM403.562 39.205C405.779 39.205 407.585 38.5894 408.981 37.358C410.376 36.1267 411.082 34.485 411.082 32.441V31.8171H403.127C401.666 31.8171 400.517 32.1291 399.679 32.7529C398.842 33.3768 398.423 34.2551 398.423 35.3797C398.423 36.5043 398.858 37.4237 399.737 38.1379C400.615 38.852 401.888 39.205 403.554 39.205H403.562Z" fill="#7084DE"/>
<path d="M438.386 44.7213C436.342 44.7213 434.684 44.081 433.403 42.8087C432.131 41.5363 431.491 39.8371 431.491 37.7028V20.1607H423.725V13.643H431.491V4.00587H439.38V13.6512H447.901V20.1689H439.38V36.332C439.38 37.5879 439.963 38.2118 441.137 38.2118H447.154V44.7295H438.386V44.7213Z" fill="#7084DE"/>
<path d="M459 10.0229C457.58 10.0229 456.381 9.5632 455.396 8.64382C454.411 7.72444 453.927 6.51775 453.927 5.00734C453.927 3.49693 454.419 2.29024 455.396 1.37907C456.373 0.45969 457.58 0 459 0C460.42 0 461.668 0.45969 462.629 1.37907C463.589 2.29845 464.065 3.50514 464.065 5.00734C464.065 6.50954 463.589 7.72444 462.629 8.64382C461.668 9.5632 460.453 10.0229 459 10.0229ZM455.051 44.7213V13.6512H462.941V44.7213H455.051Z" fill="#7084DE"/>
<path d="M486.493 45.5996C483.398 45.5996 480.623 44.9758 478.161 43.7198C475.698 42.4639 473.752 40.6498 472.332 38.2692C470.912 35.8887 470.206 33.032 470.206 29.6911V28.6896C470.206 25.3486 470.912 22.492 472.332 20.1115C473.752 17.7309 475.69 15.9168 478.161 14.6608C480.623 13.4049 483.398 12.781 486.493 12.781C489.588 12.781 492.363 13.4049 494.826 14.6608C497.288 15.9168 499.234 17.7309 500.654 20.1115C502.074 22.492 502.78 25.3569 502.78 28.6896V29.6911C502.78 33.032 502.066 35.8887 500.654 38.2692C499.234 40.6498 497.297 42.4639 494.826 43.7198C492.363 44.9758 489.588 45.5996 486.493 45.5996ZM486.493 38.5812C488.915 38.5812 490.918 37.8013 492.511 36.2335C494.095 34.6656 494.891 32.4246 494.891 29.5023V28.8784C494.891 25.9561 494.111 23.7151 492.543 22.1472C490.975 20.5794 488.964 19.7995 486.501 19.7995C484.039 19.7995 482.076 20.5794 480.484 22.1472C478.899 23.7151 478.103 25.9561 478.103 28.8784V29.5023C478.103 32.4246 478.899 34.6656 480.484 36.2335C482.068 37.8013 484.08 38.5812 486.501 38.5812H486.493Z" fill="#7084DE"/>
<path d="M510.046 44.7213V13.6512H517.812V17.7227H518.936C519.437 16.6391 520.373 15.6048 521.752 14.6198C523.131 13.6347 525.217 13.1504 528.016 13.1504C530.438 13.1504 532.556 13.7004 534.378 14.8086C536.192 15.9168 537.604 17.4354 538.606 19.3809C539.607 21.3263 540.108 23.592 540.108 26.1777V44.7131H532.219V26.8016C532.219 24.4621 531.644 22.7136 530.495 21.5398C529.346 20.3741 527.704 19.7831 525.578 19.7831C523.156 19.7831 521.276 20.5876 519.938 22.1965C518.6 23.8054 517.935 26.0464 517.935 28.9277V44.7131H510.046V44.7213Z" fill="#7084DE"/>
<path d="M244.211 111.352C238.785 111.352 234.483 109.841 231.306 106.812C228.129 103.783 226.545 99.4491 226.545 93.8179V83.2943C226.545 77.6548 228.129 73.3288 231.306 70.2998C234.483 67.2708 238.777 65.7603 244.211 65.7603C249.646 65.7603 253.767 67.2297 256.706 70.1767C259.645 73.1236 261.122 77.1623 261.122 82.2928V82.6704H252.979V82.0465C252.979 79.4608 252.256 77.3265 250.82 75.6601C249.375 73.9937 247.175 73.1564 244.211 73.1564C241.248 73.1564 238.99 74.0512 237.324 75.8489C235.649 77.6466 234.82 80.0846 234.82 83.1793V93.9492C234.82 96.9947 235.657 99.4327 237.324 101.247C238.99 103.061 241.289 103.972 244.211 103.972C247.134 103.972 249.375 103.127 250.82 101.436C252.256 99.7446 252.979 97.6267 252.979 95.0738V93.9492H261.122V94.8275C261.122 99.9662 259.653 104.005 256.706 106.952C253.759 109.899 249.596 111.368 244.211 111.368V111.352Z" fill="#7084DE"/>
<path d="M282.918 111.352C279.831 111.352 277.049 110.728 274.586 109.472C272.123 108.216 270.177 106.402 268.757 104.021C267.337 101.641 266.631 98.7842 266.631 95.4432V94.4417C266.631 91.1008 267.337 88.2441 268.757 85.8636C270.177 83.4831 272.115 81.6689 274.586 80.413C277.049 79.157 279.823 78.5332 282.918 78.5332C286.013 78.5332 288.788 79.157 291.251 80.413C293.713 81.6689 295.659 83.4831 297.079 85.8636C298.499 88.2441 299.205 91.1008 299.205 94.4417V95.4432C299.205 98.7842 298.491 101.641 297.079 104.021C295.659 106.402 293.722 108.216 291.251 109.472C288.788 110.728 286.013 111.352 282.918 111.352ZM282.918 104.333C285.34 104.333 287.343 103.553 288.936 101.986C290.52 100.418 291.316 98.1767 291.316 95.2544V94.6305C291.316 91.7082 290.536 89.4672 288.968 87.8994C287.4 86.3315 285.389 85.5517 282.926 85.5517C280.464 85.5517 278.502 86.3315 276.917 87.8994C275.333 89.4672 274.536 91.7082 274.536 94.6305V95.2544C274.536 98.1767 275.333 100.426 276.917 101.986C278.502 103.553 280.505 104.333 282.926 104.333H282.918Z" fill="#7084DE"/>
<path d="M306.471 110.473V79.4033H314.237V83.4748H315.361C315.862 82.3913 316.798 81.357 318.177 80.3719C319.556 79.3869 321.642 78.9026 324.441 78.9026C326.863 78.9026 328.981 79.4525 330.803 80.5607C332.617 81.6689 334.029 83.1875 335.031 85.133C336.032 87.0785 336.533 89.3359 336.533 91.9298V110.473H328.644V92.5619C328.644 90.2224 328.069 88.474 326.92 87.3001C325.771 86.1345 324.129 85.5434 322.003 85.5434C319.581 85.5434 317.701 86.3479 316.363 87.9568C315.025 89.5657 314.36 91.8067 314.36 94.688V110.473H306.471Z" fill="#7084DE"/>
<path d="M357.96 111.352C353.912 111.352 350.588 110.473 348.002 108.717C345.416 106.96 343.848 104.456 343.306 101.198L350.571 99.3177C350.867 100.779 351.351 101.928 352.041 102.765C352.73 103.603 353.584 104.194 354.61 104.547C355.636 104.9 356.753 105.08 357.96 105.08C359.798 105.08 361.153 104.76 362.031 104.112C362.91 103.463 363.345 102.659 363.345 101.698C363.345 100.738 362.926 99.9991 362.089 99.4737C361.252 98.9484 359.913 98.5215 358.083 98.1931L356.326 97.8812C354.15 97.4626 352.172 96.888 350.374 96.1574C348.576 95.4268 347.14 94.4171 346.056 93.1201C344.972 91.8232 344.431 90.1568 344.431 88.1128C344.431 85.0263 345.555 82.654 347.813 81.004C350.07 79.354 353.034 78.5332 356.704 78.5332C360.168 78.5332 363.049 79.3048 365.348 80.848C367.647 82.3913 369.149 84.4189 369.863 86.9225L362.532 89.1799C362.196 87.5956 361.522 86.4628 360.496 85.7979C359.47 85.133 358.206 84.7965 356.704 84.7965C355.201 84.7965 354.052 85.0591 353.256 85.5763C352.459 86.1016 352.065 86.8158 352.065 87.7352C352.065 88.7367 352.484 89.4754 353.321 89.9598C354.159 90.4359 355.283 90.8053 356.704 91.0515L358.46 91.3635C360.8 91.7821 362.918 92.3321 364.814 93.0216C366.719 93.7112 368.221 94.6962 369.321 95.9686C370.43 97.2409 370.98 98.9648 370.98 101.14C370.98 104.399 369.797 106.911 367.441 108.684C365.077 110.457 361.916 111.344 357.951 111.344L357.96 111.352Z" fill="#7084DE"/>
<path d="M389.722 110.974C387.3 110.974 385.182 110.424 383.368 109.316C381.553 108.208 380.141 106.673 379.14 104.711C378.138 102.749 377.637 100.492 377.637 97.9469V79.4033H385.527V97.3148C385.527 99.6543 386.101 101.411 387.251 102.577C388.4 103.742 390.042 104.333 392.168 104.333C394.59 104.333 396.47 103.529 397.808 101.92C399.146 100.311 399.811 98.07 399.811 95.1888V79.4033H407.708V110.473H399.942V106.402H398.818C398.317 107.444 397.381 108.471 396.002 109.472C394.623 110.473 392.537 110.974 389.738 110.974H389.722Z" fill="#7084DE"/>
<path d="M416.468 110.473V66.6305H424.357V110.473H416.468Z" fill="#7084DE"/>
<path d="M445.028 110.473C442.984 110.473 441.317 109.833 440.045 108.561C438.772 107.288 438.132 105.589 438.132 103.455V85.9129H430.366V79.3951H438.132V69.7498H446.021V79.3951H454.542V85.9129H446.021V102.076C446.021 103.332 446.604 103.956 447.778 103.956H453.795V110.473H445.028Z" fill="#7084DE"/>
<path d="M471.339 111.352C469.122 111.352 467.144 110.966 465.387 110.194C463.63 109.423 462.243 108.298 461.225 106.812C460.199 105.335 459.69 103.521 459.69 101.395C459.69 99.2685 460.199 97.479 461.225 96.0424C462.251 94.6059 463.671 93.5141 465.485 92.7836C467.3 92.053 469.377 91.6836 471.716 91.6836H480.238V89.9269C480.238 88.4658 479.778 87.2673 478.858 86.3233C477.939 85.3793 476.478 84.9114 474.475 84.9114C472.472 84.9114 471.051 85.3629 470.091 86.2576C469.13 87.1524 468.507 88.318 468.211 89.7299L460.946 87.2837C461.446 85.6994 462.251 84.2465 463.359 82.9331C464.468 81.6197 465.945 80.5525 467.809 79.7399C469.664 78.9272 471.93 78.5168 474.606 78.5168C478.702 78.5168 481.937 79.5428 484.318 81.5868C486.698 83.6308 487.889 86.5942 487.889 90.4769V102.068C487.889 103.324 488.472 103.947 489.646 103.947H492.149V110.465H486.887C485.344 110.465 484.071 110.088 483.062 109.341C482.06 108.585 481.559 107.584 481.559 106.336V106.271H480.369C480.205 106.771 479.827 107.428 479.244 108.241C478.661 109.053 477.742 109.776 476.486 110.4C475.23 111.023 473.522 111.335 471.347 111.335L471.339 111.352ZM472.71 104.965C474.926 104.965 476.732 104.35 478.128 103.118C479.523 101.887 480.229 100.245 480.229 98.2013V97.5775H472.275C470.813 97.5775 469.664 97.8894 468.827 98.5133C467.989 99.1371 467.571 100.015 467.571 101.148C467.571 102.281 468.006 103.192 468.884 103.906C469.763 104.621 471.035 104.974 472.701 104.974L472.71 104.965Z" fill="#7084DE"/>
<path d="M497.896 110.473V79.4033H505.662V83.4748H506.787C507.287 82.3913 508.223 81.357 509.602 80.3719C510.982 79.3869 513.067 78.9026 515.866 78.9026C518.288 78.9026 520.406 79.4525 522.228 80.5607C524.043 81.6689 525.455 83.1875 526.456 85.133C527.458 87.0785 527.958 89.3359 527.958 91.9298V110.473H520.061V92.5619C520.061 90.2224 519.486 88.474 518.337 87.3001C517.188 86.1345 515.546 85.5434 513.42 85.5434C510.998 85.5434 509.118 86.3479 507.78 87.9568C506.442 89.5657 505.777 91.8067 505.777 94.688V110.473H497.888H497.896Z" fill="#7084DE"/>
<path d="M551.076 111.352C548.071 111.352 545.346 110.728 542.9 109.472C540.453 108.216 538.524 106.402 537.104 104.021C535.684 101.641 534.978 98.7595 534.978 95.3775V94.4992C534.978 91.1172 535.684 88.2359 537.104 85.8554C538.524 83.4748 540.453 81.6607 542.9 80.4048C545.346 79.1488 548.063 78.525 551.076 78.525C554.089 78.525 556.585 79.0503 558.719 80.0928C560.845 81.1353 562.569 82.5637 563.891 84.386C565.213 86.2084 566.074 88.2605 566.493 90.559L558.85 92.1843C558.686 90.9284 558.308 89.8038 557.726 88.8023C557.143 87.8009 556.314 87.0046 555.255 86.4218C554.187 85.839 552.866 85.5434 551.273 85.5434C549.68 85.5434 548.26 85.8882 546.98 86.5778C545.707 87.2673 544.706 88.2934 543.975 89.6478C543.244 91.0023 542.883 92.6686 542.883 94.6305V95.2544C542.883 97.2163 543.244 98.8745 543.975 100.237C544.706 101.592 545.707 102.618 546.98 103.307C548.252 103.997 549.68 104.341 551.273 104.341C553.654 104.341 555.46 103.726 556.691 102.495C557.923 101.263 558.703 99.6461 559.039 97.6432L566.682 99.4573C566.14 101.674 565.213 103.685 563.891 105.499C562.577 107.313 560.853 108.75 558.719 109.792C556.593 110.835 554.04 111.36 551.076 111.36V111.352Z" fill="#7084DE"/>
<path d="M576.566 123V116.113H593.477C594.643 116.113 595.234 115.489 595.234 114.233V106.402H594.109C593.773 107.116 593.256 107.822 592.541 108.528C591.827 109.234 590.867 109.825 589.66 110.285C588.445 110.744 586.902 110.974 585.022 110.974C582.6 110.974 580.482 110.424 578.668 109.316C576.853 108.208 575.441 106.673 574.44 104.711C573.438 102.749 572.938 100.492 572.938 97.9469V79.4033H580.827V97.3148C580.827 99.6543 581.401 101.411 582.551 102.577C583.7 103.742 585.342 104.333 587.468 104.333C589.89 104.333 591.77 103.529 593.108 101.92C594.446 100.311 595.111 98.07 595.111 95.1888V79.4033H603.008V115.982C603.008 118.108 602.384 119.815 601.128 121.087C599.872 122.36 598.206 123 596.121 123H576.574H576.566Z" fill="#7084DE"/>
</g>
<defs>
<clipPath id="clip0_172_844">
<rect width="603" height="123" fill="white"/>
</clipPath>
</defs>
</svg>
