<svg width="45" height="32" viewBox="0 0 45 32" fill="none" xmlns="http://www.w3.org/2000/svg">
<path d="M0 31.9146V0H6.01732V31.9146H0Z" fill="white"/>
<path d="M19.7415 31.9146C17.8565 31.9146 16.2074 31.5738 14.7942 30.8899C13.381 30.206 12.2776 29.2195 11.4888 27.9255C10.6977 26.634 10.3044 25.0922 10.3044 23.2979C10.3044 21.9921 10.5404 20.8506 11.0098 19.8784C11.4817 18.9062 12.1275 18.1007 12.9473 17.4621C13.7671 16.8235 14.6798 16.3517 15.6831 16.049V15.4104C14.1627 14.9553 12.9163 14.1641 11.944 13.0394C10.9717 11.9146 10.4856 10.4253 10.4856 8.5714C10.4856 6.71748 10.8955 5.15189 11.7176 3.87464C12.5374 2.59739 13.6551 1.63231 15.0683 0.979384C16.4814 0.326461 18.0995 0 19.925 0H24.8938V4.74203H20.9736C19.6057 4.74203 18.4737 5.10662 17.5777 5.83579C16.6816 6.56497 16.2336 7.64444 16.2336 9.07181C16.2336 10.075 16.4528 10.8948 16.8937 11.5334C17.3346 12.172 17.9113 12.6438 18.6262 12.9465C19.3411 13.2515 20.1228 13.4016 20.9736 13.4016H25.3966V9.29819H31.1422V13.4016H35.3365V18.1436H31.1422V31.9122H19.7439L19.7415 31.9146ZM20.7901 27.1725H25.3942V18.146H20.7901C19.4531 18.146 18.3283 18.5273 17.4156 19.285C16.5029 20.0452 16.0477 21.1699 16.0477 22.6593C16.0477 24.1486 16.5267 25.3115 17.4847 26.0549C18.4427 26.8008 19.5437 27.1725 20.7901 27.1725Z" fill="white"/>
<path d="M38.9827 31.9146V0H45V31.9146H38.9827Z" fill="white"/>
</svg>
