<svg width="131" height="134" viewBox="0 0 131 134" fill="none" xmlns="http://www.w3.org/2000/svg">
<g clip-path="url(#clip0_172_951)">
<path d="M130.472 85.4696L129.404 83.6211C127.812 80.8359 125.228 78.841 122.134 78.0079C121.09 77.722 120.02 77.5778 118.957 77.5778C116.881 77.5778 114.83 78.1362 113.026 79.19L89.8797 92.6161C89.9625 90.0786 89.2393 87.5703 87.7952 85.4403C85.9973 82.788 83.277 80.9935 80.1313 80.3833L51.5939 74.9683C50.4699 74.7566 49.3572 74.6486 48.287 74.6486C45.3988 74.6486 42.7076 75.3983 40.0567 76.9384L26.3813 84.8729C25.4096 83.4049 23.755 82.5065 21.9885 82.5065C21.0705 82.5065 20.166 82.752 19.3756 83.2158L12.7103 87.084C11.2416 87.9351 10.2676 89.4752 10.1064 91.1706L1.12832 96.3897C0.0446775 97.0157 -0.329224 98.4116 0.293199 99.4991C0.698446 100.206 1.44849 100.643 2.25003 100.643C2.65304 100.643 3.05604 100.533 3.37173 100.339L11.508 95.6264L28.3873 125.021L20.2511 129.749C19.1674 130.375 18.7935 131.771 19.4159 132.858C19.8212 133.565 20.5712 134.004 21.3728 134.004C21.7758 134.004 22.1788 133.894 22.4945 133.698L31.4748 128.493C32.1734 128.812 32.9257 128.981 33.6735 128.981C34.5892 128.981 35.4959 128.734 36.2975 128.265L42.9628 124.397C44.1853 123.688 45.0584 122.539 45.4211 121.166C45.7525 119.916 45.6204 118.619 45.0517 117.469L50.0087 114.589C51.0185 113.997 51.9969 113.722 53.0895 113.722C53.3582 113.722 53.6403 113.74 53.9291 113.774L77.8745 116.55C78.5641 116.629 79.2537 116.672 79.9209 116.672C82.8091 116.672 85.4869 115.938 88.1087 114.425L128.678 90.8734C130.494 89.7859 131.75 87.6919 130.463 85.4696H130.472ZM40.7597 120.409L34.063 124.296C33.9533 124.359 33.8257 124.393 33.6981 124.393C33.4294 124.393 33.1831 124.253 33.0533 124.028L14.7164 92.0487C14.5149 91.6975 14.638 91.2336 14.9806 91.0332L21.6459 87.165C21.7556 87.102 21.8832 87.0682 22.0109 87.0682C22.2795 87.0682 22.5258 87.2078 22.6557 87.433L41.0037 119.387C41.203 119.748 41.091 120.198 40.7574 120.409H40.7597ZM125.288 87.5591L85.8742 110.44C83.9375 111.561 82.0613 112.081 79.9679 112.081C79.4731 112.081 78.9559 112.049 78.432 111.989L54.4866 109.212C54.0366 109.161 53.5865 109.134 53.1499 109.134C51.2468 109.134 49.4893 109.613 47.7787 110.604L42.8262 113.481L28.665 88.8267L42.3247 80.9012C44.2815 79.7686 46.254 79.2192 48.3586 79.2192C49.1378 79.2192 49.946 79.2981 50.7655 79.4512L79.2984 84.8729C81.2486 85.2512 82.9434 86.3702 84.0696 88.0206C85.1958 89.6845 85.6122 91.6772 85.2428 93.6361L84.9092 95.4373L51.5581 89.1081C51.4192 89.0811 51.2782 89.0699 51.1371 89.0699C50.0513 89.0699 49.1176 89.8489 48.9184 90.9229C48.69 92.1568 49.4982 93.3479 50.7207 93.5775L84.3853 99.9675C84.6607 100.022 84.9249 100.049 85.1712 100.049C86.1003 100.049 87.0116 99.7333 87.7415 99.1614L115.298 83.1235C116.424 82.475 117.698 82.1328 118.981 82.1328C119.642 82.1328 120.307 82.2228 120.956 82.4007C122.904 82.9343 124.516 84.175 125.494 85.8952L126.157 87.0547L125.277 87.5568L125.291 87.5613L125.288 87.5591Z" fill="#D2D4F5"/>
<path d="M84.6809 50.3811C84.4301 50.3811 84.1749 50.3293 83.9017 50.219L70.5308 44.5V44.4009C70.0741 44.0114 69.8188 43.435 69.839 42.8158V29.0542C69.839 28.3697 70.1771 27.7326 70.7458 27.352C70.8577 27.2755 70.9674 27.2237 71.0637 27.1809L83.895 21.6916C84.1368 21.5835 84.4055 21.5272 84.6876 21.5272C84.9697 21.5272 85.2339 21.5835 85.4891 21.6938L98.3384 27.1899L98.3854 27.2124C98.4503 27.244 98.5399 27.2867 98.6339 27.352C99.2026 27.728 99.5429 28.3652 99.5429 29.0542V42.8316C99.5429 43.6512 99.0571 44.3919 98.3026 44.7207L85.4847 50.2032C85.2429 50.3158 84.9675 50.3766 84.6764 50.3766L84.6809 50.3811ZM82.6435 45.2363V35.9012L73.9004 32.1569V41.4919L82.6435 45.2363ZM86.7183 45.2363L95.4636 41.4919V32.1569L86.7206 35.9012V45.2363H86.7183ZM84.6809 32.319L92.2977 29.0587L84.6809 25.7985L77.064 29.0587L84.6809 32.319Z" fill="#D2D4F5"/>
<path d="M84.672 71.9129C83.4607 71.9129 82.2114 71.8476 80.9531 71.717C78.1119 71.422 75.9446 69.22 75.6826 66.3627L75.2326 61.4949C75.1968 61.1098 74.9662 60.7946 74.6124 60.6505C74.4803 60.5965 74.3482 60.5695 74.2184 60.5695C73.99 60.5695 73.7684 60.655 73.5803 60.8149L69.8637 63.9671C68.789 64.879 67.4366 65.3811 66.0575 65.3811C64.6783 65.3811 63.4424 64.9285 62.3744 64.0706C60.3504 62.445 58.5078 60.6055 56.8957 58.6038C55.0956 56.3793 55.1136 53.2811 56.9383 51.0723L60.0437 47.3122C60.2877 47.015 60.3459 46.6232 60.2004 46.2697C60.0549 45.9185 59.737 45.6866 59.3496 45.6528L54.5046 45.2385C51.6634 44.9976 49.4558 42.8361 49.1378 39.9811C48.8513 37.4053 48.8401 34.7957 49.1087 32.2222C49.402 29.3672 51.5917 27.1899 54.4329 26.9242L59.2735 26.4717C59.6564 26.4356 59.9698 26.2037 60.1153 25.848C60.2676 25.4765 60.2094 25.1185 59.9519 24.81L56.8174 21.0724C54.977 18.8816 54.9344 15.7857 56.7166 13.5409C58.3331 11.5055 60.1624 9.65243 62.1528 8.0313C63.2095 7.1667 64.5305 6.69161 65.8716 6.69161C67.2128 6.69161 68.574 7.18246 69.642 8.07408L73.381 11.1948C73.5691 11.3524 73.7907 11.4357 74.0191 11.4357C74.1512 11.4357 74.2855 11.4087 74.4176 11.3524C74.7692 11.206 74.9975 10.8863 75.0311 10.4968L75.4431 5.62437C75.6826 2.76713 77.832 0.547077 80.671 0.227354C81.9897 0.0787507 83.3331 0.00219727 84.6652 0.00219727C85.9056 0.00219727 87.1572 0.0674928 88.3863 0.198084C91.2253 0.49304 93.3926 2.69508 93.6546 5.55232L94.1046 10.4202C94.1404 10.8052 94.371 11.1205 94.7248 11.2646C94.8569 11.3186 94.989 11.3456 95.1188 11.3456C95.3472 11.3456 95.5689 11.2601 95.7569 11.1002L99.4736 7.94799C100.544 7.03611 101.896 6.534 103.277 6.534C104.659 6.534 105.895 6.98657 106.963 7.84442C108.987 9.47005 110.829 11.3096 112.441 13.3112C114.242 15.5358 114.224 18.6339 112.399 20.8427L109.296 24.6029C109.052 24.9023 108.993 25.2918 109.139 25.6453C109.285 25.9988 109.602 26.2285 109.99 26.2623L114.835 26.6766C117.676 26.9175 119.884 29.079 120.202 31.934C120.488 34.5053 120.499 37.1148 120.231 39.6929C119.937 42.5434 117.75 44.7252 114.909 44.9953L110.064 45.4479C109.681 45.4839 109.367 45.7158 109.222 46.0716C109.07 46.4431 109.128 46.8034 109.385 47.1096L112.52 50.8472C114.358 53.0402 114.401 56.1384 112.621 58.3787C111.004 60.4141 109.175 62.2671 107.184 63.8883C106.128 64.7529 104.807 65.228 103.466 65.228C102.124 65.228 100.763 64.7371 99.6952 63.8455L95.9562 60.7248C95.7681 60.5672 95.5465 60.4839 95.3158 60.4839C95.1815 60.4839 95.0494 60.5109 94.9173 60.5672C94.5658 60.7136 94.3374 61.0333 94.3039 61.4228L93.8919 66.2952C93.6523 69.1524 91.5029 71.3725 88.664 71.6922C87.343 71.8386 85.9996 71.9129 84.6697 71.9129H84.672ZM74.2318 56.0145C74.9617 56.0145 75.6714 56.1564 76.3364 56.4333C78.2507 57.2214 79.556 58.9979 79.7463 61.0761L80.1963 65.944C80.259 66.6082 80.7628 67.1193 81.421 67.1868C82.4912 67.2971 83.5816 67.3534 84.663 67.3534C85.8317 67.3534 87.0094 67.2881 88.1647 67.1598C88.8229 67.0855 89.3222 66.5721 89.3782 65.9079L89.7924 61.0333C89.9693 58.9573 91.2634 57.1673 93.1687 56.3613C93.8538 56.0731 94.5748 55.9267 95.3136 55.9267C96.601 55.9267 97.857 56.3838 98.8511 57.2146L102.588 60.3353C102.843 60.5492 103.145 60.6618 103.463 60.6618C103.781 60.6618 104.072 60.5514 104.325 60.3465C106.074 58.9236 107.673 57.3047 109.076 55.5327C109.491 55.0103 109.479 54.2921 109.052 53.7855L105.917 50.0479C104.583 48.4538 104.238 46.2675 105.022 44.3446C105.805 42.4173 107.576 41.1001 109.641 40.911L114.481 40.4584C115.142 40.3954 115.65 39.8888 115.717 39.2268C115.95 36.9527 115.941 34.6719 115.69 32.4473C115.616 31.7831 115.106 31.281 114.445 31.2247L109.598 30.8082C107.534 30.6303 105.754 29.3289 104.952 27.4128C104.151 25.4922 104.475 23.3037 105.801 21.7006L108.904 17.9427C109.327 17.4294 109.332 16.7111 108.913 16.1932C107.498 14.4348 105.888 12.8271 104.126 11.4154C103.875 11.2128 103.578 11.1069 103.271 11.1069C102.964 11.1069 102.642 11.224 102.389 11.4402L98.672 14.5924C97.669 15.4412 96.3995 15.9095 95.0987 15.9095C94.3777 15.9095 93.6725 15.7699 93.0008 15.4953C91.082 14.7072 89.7745 12.9262 89.5842 10.8503L89.1342 5.98237C89.0715 5.31816 88.5677 4.80705 87.9095 4.7395C86.8415 4.62918 85.7511 4.57289 84.6675 4.57289C83.501 4.57289 82.3233 4.63818 81.1658 4.76652C80.5075 4.84082 80.0083 5.35418 79.9523 6.01839L79.5381 10.893C79.3612 12.969 78.0671 14.759 76.1618 15.5651C75.4767 15.8533 74.7557 15.9996 74.0191 15.9996C72.7317 15.9996 71.4757 15.5425 70.4816 14.7117L66.7448 11.591C66.4896 11.3771 66.1873 11.2646 65.8694 11.2646C65.5515 11.2646 65.2604 11.3749 65.0074 11.5798C63.2588 13.0028 61.6624 14.6216 60.2564 16.3936C59.8422 16.9137 59.8534 17.6342 60.2788 18.1409L63.4133 21.8785C64.7477 23.4726 65.0925 25.6588 64.3089 27.5817C63.5252 29.509 61.7542 30.8262 59.6899 31.0153L54.8494 31.4679C54.1889 31.5309 53.6806 32.0375 53.6135 32.6995C53.3829 34.9488 53.3918 37.2297 53.6403 39.4812C53.7142 40.1432 54.2247 40.6453 54.8852 40.7016L59.7325 41.1181C61.7968 41.296 63.5767 42.5974 64.3783 44.5135C65.1798 46.4341 64.8552 48.6226 63.5297 50.2257L60.4265 53.9836C60.0034 54.497 59.9989 55.2152 60.4176 55.7331C61.8326 57.4893 63.4424 59.0969 65.2044 60.5109C65.4552 60.7136 65.753 60.8194 66.0597 60.8194C66.3664 60.8194 66.6888 60.7023 66.9418 60.4884L70.6585 57.3362C71.6593 56.4851 72.9287 56.0168 74.2318 56.0168V56.0145Z" fill="#D2D4F5"/>
</g>
<defs>
<clipPath id="clip0_172_951">
<rect width="131" height="134" fill="white"/>
</clipPath>
</defs>
</svg>
