<svg width="89" height="134" viewBox="0 0 89 134" fill="none" xmlns="http://www.w3.org/2000/svg">
<g clip-path="url(#clip0_172_1048)">
<path d="M89 53.359L88.5734 47.4409C87.5966 42.9798 84.9107 39.0005 81.1553 36.6446L66.7654 27.6181V19.592C69.8331 19.5807 72.3283 17.0697 72.3283 13.9867V5.61116C72.3283 2.51966 69.8219 0.00305176 66.743 0.00305176H22.2739C19.1949 0.00305176 16.6886 2.51966 16.6886 5.61116V13.9867C16.6886 17.0697 19.1781 19.5779 22.2458 19.592V27.6181L7.86153 36.6446C4.10618 39.0005 1.42018 42.9798 0.443456 47.4409L0.00842006 53.359L0 122.809C0 128.981 5.00151 134.003 11.1482 134.003H77.849C83.9957 134.003 88.9972 128.981 88.9972 122.809L89.0028 53.359H89ZM66.7149 5.63652V13.8965H22.3019V5.63652H66.7121H66.7149ZM10.8366 41.4213L27.8592 30.7377V19.5892H61.1521V30.7377L78.1746 41.4213L78.343 41.5256C80.4087 42.8783 81.9636 45.0004 82.7635 47.4381H6.25049C7.07004 44.9356 8.6895 42.7656 10.8338 41.4213H10.8366ZM83.3866 53.359V111.624H5.62179V53.359H83.3894H83.3866ZM83.381 122.809C83.381 125.873 80.8999 128.367 77.8462 128.367H11.1482C8.09729 128.367 5.61337 125.876 5.61337 122.809V117.26H83.381V122.809Z" fill="#D2D4F5"/>
<path d="M59.2154 71.6711C37.952 76.4169 32.9897 91.0543 28.078 103.319L32.5435 104.886L34.786 99.4271C35.9199 99.8329 37.1015 100.14 37.952 100.14C63.9419 100.14 71.0315 59.8124 71.0315 59.8124C68.6683 64.5553 52.1285 65.1499 40.3152 67.5228C28.5018 69.8929 23.7754 79.9762 23.7754 84.722C23.7754 89.4677 27.9096 93.6189 27.9096 93.6189C35.5887 71.674 59.2154 71.674 59.2154 71.674V71.6711Z" fill="#D2D4F5"/>
</g>
<defs>
<clipPath id="clip0_172_1048">
<rect width="89" height="134" fill="white"/>
</clipPath>
</defs>
</svg>
