<svg width="134" height="134" viewBox="0 0 134 134" fill="none" xmlns="http://www.w3.org/2000/svg">
<path d="M123.242 61.4658H113.531C112.261 61.4658 111.231 60.4362 111.231 59.1654C111.231 57.8947 112.261 56.8651 113.531 56.8651H123.242C124.513 56.8651 125.542 57.8947 125.542 59.1654C125.542 60.4362 124.513 61.4658 123.242 61.4658Z" fill="#D2D4F5"/>
<path d="M20.4729 61.4658H10.7579C9.48709 61.4658 8.45752 60.4362 8.45752 59.1654C8.45752 57.8947 9.48709 56.8651 10.7579 56.8651H20.4729C21.7436 56.8651 22.7732 57.8947 22.7732 59.1654C22.7732 60.4362 21.7436 61.4658 20.4729 61.4658Z" fill="#D2D4F5"/>
<path d="M107.296 38.1989C106.501 38.1989 105.728 37.7857 105.306 37.0487C104.667 35.9477 105.045 34.5429 106.146 33.9064L114.559 29.0512C115.66 28.4102 117.064 28.7899 117.699 29.8931C118.338 30.9942 117.96 32.3989 116.859 33.0354L108.446 37.8907C108.082 38.1006 107.687 38.1989 107.296 38.1989Z" fill="#D2D4F5"/>
<path d="M18.2954 89.5856C17.5048 89.5856 16.7276 89.1747 16.3055 88.4354C15.6668 87.3344 16.0442 85.9296 17.1452 85.2931L25.5537 80.4379C26.6503 79.7991 28.0595 80.1743 28.6938 81.2798C29.3325 82.3809 28.9551 83.7856 27.8541 84.4221L19.4456 89.2774C19.0815 89.4873 18.6862 89.5856 18.2954 89.5856Z" fill="#D2D4F5"/>
<path d="M90.2646 21.1676C89.8738 21.1676 89.4785 21.0693 89.1145 20.8594C88.0134 20.2229 87.636 18.8181 88.2747 17.7171L93.13 9.30636C93.7643 8.20756 95.1735 7.83906 96.2701 8.46439C97.3711 9.10089 97.7485 10.5057 97.1098 11.6067L92.2545 20.0174C91.8324 20.7544 91.0552 21.1676 90.2646 21.1676Z" fill="#D2D4F5"/>
<path d="M67 14.9342C65.7293 14.9342 64.6997 13.9047 64.6997 12.6339V2.92338C64.6997 1.65261 65.7293 0.623047 67 0.623047C68.2708 0.623047 69.3004 1.65261 69.3004 2.92338V12.6339C69.3004 13.9047 68.2708 14.9342 67 14.9342Z" fill="#D2D4F5"/>
<path d="M43.7354 21.1675C42.9448 21.1675 42.1676 20.7566 41.7455 20.0173L36.8902 11.6066C36.2515 10.5056 36.6289 9.10082 37.73 8.46432C38.8221 7.83228 40.2358 8.20078 40.87 9.30628L45.7253 17.717C46.364 18.818 45.9866 20.2228 44.8856 20.8593C44.5215 21.0692 44.1262 21.1675 43.7354 21.1675Z" fill="#D2D4F5"/>
<path d="M26.7084 38.1989C26.3175 38.1989 25.9222 38.1007 25.5582 37.8907L17.1452 33.0355C16.0442 32.399 15.6668 30.9942 16.3055 29.8932C16.9398 28.7921 18.349 28.4214 19.4456 29.0512L27.8585 33.9065C28.9596 34.543 29.337 35.9477 28.6983 37.0488C28.2762 37.7858 27.5034 38.1989 26.7084 38.1989Z" fill="#D2D4F5"/>
<path d="M115.709 89.5857C115.318 89.5857 114.923 89.4874 114.559 89.2775L106.146 84.4222C105.045 83.7857 104.668 82.3809 105.306 81.2799C105.936 80.1789 107.345 79.8059 108.446 80.4379L116.859 85.2932C117.96 85.9297 118.338 87.3345 117.699 88.4355C117.277 89.1725 116.504 89.5857 115.709 89.5857Z" fill="#D2D4F5"/>
<path d="M80.2547 110.108H53.7473C53.1354 110.108 52.5525 109.864 52.1214 109.431C51.6859 109 51.447 108.413 51.447 107.803L51.4514 101.856C51.4514 98.5548 47.3644 93.5834 44.3829 89.952C43.7085 89.1302 43.063 88.3418 42.4779 87.6003C40.057 84.5295 37.9777 81.577 36.1174 78.5687C34.3307 75.6788 32.9505 72.5544 32.0259 69.2892C31.1013 66.0263 30.6345 62.6361 30.6345 59.2102C30.6345 39.0008 46.9468 22.559 67.0021 22.559C87.0575 22.559 103.37 39.0008 103.37 59.2102C103.37 62.6428 102.903 66.0353 101.983 69.2892C101.063 72.541 99.6825 75.6632 97.8914 78.5687C96.0265 81.5748 93.9473 84.5295 91.5308 87.5981C90.9479 88.344 90.2958 89.1346 89.6168 89.9587C86.6353 93.5879 82.5528 98.5571 82.5528 101.856L82.5573 107.803C82.5573 108.415 82.3183 109 81.8828 109.431C81.4518 109.864 80.8666 110.108 80.257 110.108H80.2547ZM56.0476 105.509H77.9566L77.9522 101.858C77.9522 96.9133 82.2647 91.6672 86.0636 87.0398C86.7202 86.2402 87.3478 85.4742 87.9195 84.7528C90.2288 81.8205 92.2098 79.0065 93.9786 76.15C95.5464 73.6085 96.7501 70.8771 97.5541 68.0363C98.3626 65.1911 98.7713 62.223 98.7713 59.2102C98.7713 41.5356 84.5204 27.1574 67.0044 27.1574C49.4883 27.1574 35.2374 41.5356 35.2374 59.2102C35.2374 62.2096 35.6461 65.1799 36.4591 68.0363C37.2675 70.8905 38.4713 73.6219 40.0346 76.15C41.8034 79.0087 43.7844 81.8227 46.0937 84.7528C46.6587 85.472 47.2885 86.2358 47.9451 87.0331C51.744 91.6605 56.0566 96.9089 56.0566 101.858L56.0521 105.509H56.0476Z" fill="#D2D4F5"/>
<path d="M90.8633 66.0933C90.7784 66.0933 90.6891 66.0888 90.602 66.0799C89.3402 65.9392 88.4334 64.8002 88.5719 63.5383C90.0593 50.2522 81.5168 40.7248 75.0446 39.2173C73.8096 38.9292 73.0368 37.6942 73.3249 36.4569C73.613 35.2197 74.857 34.4313 76.0876 34.7395C84.3956 36.6736 94.9503 47.934 93.1458 64.0498C93.0162 65.2245 92.0179 66.0933 90.8633 66.0933Z" fill="#D2D4F5"/>
<path d="M76.6949 125.603H57.3051C56.0366 125.603 55.0093 124.575 55.0093 123.307C55.0093 122.038 56.0366 121.011 57.3051 121.011H76.6949C77.9635 121.011 78.9908 122.038 78.9908 123.307C78.9908 124.575 77.9635 125.603 76.6949 125.603Z" fill="#D2D4F5"/>
<path d="M79.8306 118.188H54.1718C52.9033 118.188 51.876 117.161 51.876 115.892C51.876 114.624 52.9033 113.596 54.1718 113.596H79.8306C81.0991 113.596 82.1265 114.624 82.1265 115.892C82.1265 117.161 81.0991 118.188 79.8306 118.188Z" fill="#D2D4F5"/>
<path d="M62.6986 128.783H71.3059C71.7012 128.783 72.0228 129.105 72.0228 129.5V129.79C72.0228 131.769 70.417 133.377 68.4361 133.377H65.5662C63.5875 133.377 61.9795 131.771 61.9795 129.79V129.5C61.9795 129.105 62.3011 128.783 62.6964 128.783H62.6986Z" fill="#D2D4F5"/>
</svg>
