<svg width="129" height="131" viewBox="0 0 129 131" fill="none" xmlns="http://www.w3.org/2000/svg">
<path fill-rule="evenodd" clip-rule="evenodd" d="M17.5041 49.5842C13.6219 49.5842 10.4644 52.7558 10.4644 56.6537C10.4644 60.5516 13.6219 63.7299 17.5041 63.7299C21.3863 63.7299 24.5372 60.556 24.5372 56.6537C24.5372 52.7514 21.3819 49.5842 17.5041 49.5842ZM17.5019 60.194C15.5619 60.194 13.982 58.606 13.982 56.6559C13.982 54.7059 15.5619 53.1201 17.5019 53.1201C19.4419 53.1201 21.0195 54.7059 21.0195 56.6559C21.0195 58.606 19.4419 60.194 17.5019 60.194Z" fill="#D2D4F5"/>
<path fill-rule="evenodd" clip-rule="evenodd" d="M38.4514 93.6736C34.5691 93.6736 31.4116 96.8452 31.4116 100.743C31.4116 104.641 34.5691 107.819 38.4514 107.819C42.3336 107.819 45.4845 104.645 45.4845 100.743C45.4845 96.8408 42.3292 93.6736 38.4514 93.6736ZM38.4491 104.283C36.5091 104.283 34.9293 102.695 34.9293 100.745C34.9293 98.7952 36.5091 97.2094 38.4491 97.2094C40.3892 97.2094 41.9668 98.7952 41.9668 100.745C41.9668 102.695 40.3892 104.283 38.4491 104.283Z" fill="#D2D4F5"/>
<path fill-rule="evenodd" clip-rule="evenodd" d="M56.3644 49.5842C52.4822 49.5842 49.3247 52.7558 49.3247 56.6537C49.3247 60.5516 52.4822 63.7299 56.3644 63.7299C60.2467 63.7299 63.3976 60.556 63.3976 56.6537C63.3976 52.7514 60.2423 49.5842 56.3644 49.5842ZM56.3644 60.194C54.4244 60.194 52.8446 58.606 52.8446 56.6559C52.8446 54.7059 54.4244 53.1201 56.3644 53.1201C58.3045 53.1201 59.8821 54.7059 59.8821 56.6559C59.8821 58.606 58.3045 60.194 56.3644 60.194Z" fill="#D2D4F5"/>
<path d="M54.4154 46.0505C54.8197 45.4731 54.9015 44.7668 54.6474 44.0605L47.5944 25.3485L48.9334 26.6167C49.3444 27.0053 49.8813 27.2208 50.4447 27.2208C51.0524 27.2208 51.6401 26.9654 52.0533 26.5211C52.4577 26.0903 52.672 25.5261 52.6521 24.9309C52.6344 24.3379 52.3848 23.7871 51.9561 23.3851L43.9221 15.7692C43.4846 15.3317 42.9233 15.0918 42.3356 15.0918C41.3059 15.0918 40.4243 15.7981 40.1879 16.8064L37.6225 27.7072C37.4612 28.389 37.5938 29.0487 37.9982 29.5639C38.4202 30.1036 39.0985 30.4257 39.8122 30.4257C40.8485 30.4257 41.6771 29.7594 41.9202 28.7288L42.7885 25.042L50.4978 45.5708C50.8226 46.4681 51.5959 47.0256 52.5173 47.0256C53.2686 47.0256 53.9956 46.6524 54.4154 46.0505Z" fill="#D2D4F5"/>
<path d="M27.1096 90.1755C27.4256 91.0928 28.2056 91.6614 29.1424 91.6614C29.8871 91.6614 30.6096 91.2927 31.0294 90.6997C31.4338 90.1267 31.5199 89.4248 31.2747 88.7252L23.7886 67.7544C23.4726 66.8415 22.6949 66.2729 21.758 66.2729C21.0111 66.2729 20.2886 66.6416 19.8688 67.2369C19.4666 67.8099 19.3783 68.5117 19.6235 69.2136L27.1096 90.1777V90.1755Z" fill="#D2D4F5"/>
<path d="M45.6609 58.1618C46.0145 57.7575 46.2067 57.2245 46.2067 56.6603C46.2067 55.3944 45.2654 54.4393 44.0148 54.4393H30.5872C29.9309 54.4393 29.3476 54.6947 28.9432 55.1567C28.5897 55.5587 28.3975 56.094 28.3975 56.6581C28.3975 57.7353 29.1664 58.8814 30.5938 58.8814H44.017C44.6733 58.8814 45.2588 58.6259 45.6632 58.164L45.6609 58.1618Z" fill="#D2D4F5"/>
<path d="M51.7043 69.7776C51.3486 68.9159 50.509 68.3362 49.6141 68.3362C49.044 68.3362 48.5137 68.5672 48.0806 69.0025L44.5851 72.5161L41.0895 69.0025C40.6564 68.5672 40.1261 68.3362 39.5561 68.3362C38.6634 68.3362 37.8259 68.9136 37.4702 69.7732C37.1277 70.5994 37.3133 71.4834 37.9651 72.143L41.4607 75.6567L37.9651 79.1703C37.3133 79.8255 37.1277 80.7095 37.468 81.5357C37.8237 82.3974 38.6634 82.9771 39.5583 82.9771C40.1283 82.9771 40.6586 82.7461 41.0917 82.3108L44.5873 78.7972L48.0828 82.3108C48.5159 82.7461 49.0462 82.9771 49.6163 82.9771C50.5112 82.9771 51.3508 82.3974 51.7066 81.5357C52.0468 80.7095 51.8612 79.8255 51.2094 79.1703L47.7138 75.6567L51.2094 72.143C51.8612 71.4878 52.0468 70.6038 51.7066 69.7776H51.7043Z" fill="#D2D4F5"/>
<path d="M14.9877 39.2187C15.3434 40.0804 16.1831 40.6601 17.078 40.6601C17.648 40.6601 18.1783 40.4291 18.6114 39.9938L22.107 36.4802L25.6025 39.9938C26.0356 40.4291 26.5659 40.6601 27.136 40.6601C28.0309 40.6601 28.8705 40.0804 29.2263 39.2187C29.5665 38.3925 29.3809 37.5085 28.7291 36.8533L25.2335 33.3397L28.7291 29.826C29.3809 29.1708 29.5665 28.2868 29.2241 27.4606C28.8683 26.5989 28.0287 26.0192 27.1338 26.0192C26.5637 26.0192 26.0334 26.2502 25.6003 26.6855L22.1048 30.1991L18.6092 26.6855C18.1739 26.248 17.6414 26.017 17.0713 26.017C16.1787 26.017 15.339 26.5944 14.9855 27.4562C14.6452 28.2846 14.8308 29.1708 15.4849 29.8282L18.9804 33.3419L15.4849 36.8555C14.833 37.5107 14.6474 38.3947 14.9877 39.2209V39.2187Z" fill="#D2D4F5"/>
<path d="M126.684 121.978C125.657 119.484 123.359 117.934 120.692 117.934V113.723C120.692 112.51 120.221 111.368 119.368 110.511C118.164 109.301 116.934 109.192 115.822 109.181C112.428 100.834 110.455 94.7819 108.953 89.4759C106.792 81.8534 106.325 61.5688 106.325 61.5688C108.02 61.1246 109.452 59.9608 110.243 58.3461C110.937 56.9291 111.052 55.3278 110.601 53.8597C112.996 53.7486 114.91 51.7564 114.91 49.3222V35.6696C114.91 33.1643 112.881 31.1276 110.391 31.1276H105.603C103.11 31.1276 101.084 33.1665 101.084 35.6696V39.5852H97.5069V35.6629C97.5069 34.4502 97.0362 33.3086 96.1833 32.4513C95.0586 31.3208 93.9494 31.1431 92.743 31.1209V31.1143H88.4586V31.1209H88.22C85.7276 31.1209 83.7014 33.1576 83.7014 35.6629V39.5852H80.1241V35.6696C80.1241 33.1643 78.0979 31.1276 75.6055 31.1276H70.8173C68.3249 31.1276 66.2987 33.1643 66.2987 35.6696V49.3222C66.2987 50.5348 66.7693 51.6764 67.6222 52.5337C68.6011 53.5177 69.5711 53.7797 70.6052 53.8441C70.1478 55.3167 70.2627 56.9247 70.9587 58.3461C71.7497 59.9608 73.1838 61.1269 74.8807 61.5688C74.8807 61.5688 75.6762 77.2981 72.6689 89.5226C71.2968 95.0995 68.9546 101.345 65.4303 109.179H64.8293C62.6374 109.179 60.7968 110.767 60.3925 112.859L60.3085 117.936C58.5784 117.936 56.9477 118.616 55.7192 119.851C53.83 121.75 53.2909 124.47 54.3139 126.951C55.3414 129.445 57.6393 130.996 60.3085 130.996L120.692 130.989C122.424 130.989 124.055 130.309 125.281 129.074C127.171 127.175 127.71 124.455 126.687 121.972L126.684 121.978ZM70.7974 49.5576C70.6737 49.5576 70.5698 49.4532 70.5698 49.3288V35.6762C70.5698 35.5519 70.6737 35.4475 70.7974 35.4475H75.5856C75.7093 35.4475 75.8132 35.5519 75.8132 35.6762V41.7485C75.8132 42.939 76.7765 43.9051 77.9587 43.9051H85.8292C87.0135 43.9051 87.9747 42.9367 87.9747 41.7485V35.6696C87.9747 35.5452 88.0786 35.4408 88.2023 35.4408H92.9905C93.1142 35.4408 93.2181 35.5452 93.2181 35.6696V41.7485C93.2181 42.939 94.1814 43.9051 95.3636 43.9051H103.234C104.418 43.9051 105.38 42.9367 105.38 41.7485V35.6762C105.38 35.5519 105.483 35.4475 105.607 35.4475H110.395C110.519 35.4475 110.623 35.5519 110.623 35.6762V49.3288C110.623 49.4532 110.519 49.5576 110.395 49.5576H70.8018H70.7974ZM74.7526 54.9835C74.9757 54.4438 75.5237 53.8664 76.3987 53.8664H104.801C105.271 53.8664 105.718 54.0551 106.058 54.3972C106.584 54.9258 106.727 55.6521 106.445 56.3406C106.221 56.8803 105.673 57.4577 104.799 57.4577H76.3965C75.9258 57.4577 75.4773 57.2689 75.1392 56.9269C74.6134 56.3983 74.4697 55.672 74.7526 54.9835ZM76.6042 90.5775C79.5032 76.8716 78.5751 66.7727 78.8381 61.6777H102.591C102.953 66.6572 102.277 78.8772 104.818 90.5575C105.945 95.7347 108.122 101.474 111.213 109.187H70.1124C73.3252 101.88 75.4596 95.9902 76.6042 90.5775ZM64.5995 113.729C64.5995 113.605 64.7034 113.501 64.8271 113.501H116.187C116.31 113.501 116.414 113.605 116.414 113.729V117.94H64.6017V113.729H64.5995ZM122.74 125.303C122.466 125.972 121.786 126.687 120.703 126.687H60.3085C59.7252 126.687 59.1706 126.454 58.7507 126.032C58.1011 125.381 57.9199 124.484 58.2713 123.631C58.5452 122.962 59.2258 122.247 60.3085 122.247H120.703C121.282 122.247 121.837 122.48 122.261 122.902C122.91 123.553 123.092 124.45 122.74 125.303Z" fill="#D2D4F5"/>
<path fill-rule="evenodd" clip-rule="evenodd" d="M49.4924 113.085H7.70689C6.34358 113.085 5.23879 111.975 5.23879 110.604V7.15611C5.23879 5.78574 6.34358 4.67523 7.70689 4.67523H66.8906L66.9481 23.334C66.9481 24.2491 67.5005 25.0353 68.2893 25.3729L82.34 25.5061H91.2469C91.7728 25.5061 92.1992 25.0775 92.1992 24.5489V23.3273C92.1992 22.6899 91.9274 22.0858 91.4524 21.6638L70.7353 0.968358C70.3133 0.497503 69.7145 0.22876 69.0848 0.22876H7.70468C3.89978 0.22876 0.812988 3.3293 0.812988 7.15611V110.604C0.812988 114.431 3.89757 117.532 7.70468 117.532H49.4924C50.2679 117.532 50.8954 116.901 50.8954 116.121V114.496C50.8954 113.716 50.2679 113.085 49.4924 113.085ZM84.5784 21.1108H71.3496L71.3098 7.81353L84.5784 21.1108Z" fill="#D2D4F5"/>
</svg>
