<svg width="136" height="139" viewBox="0 0 136 139" fill="none" xmlns="http://www.w3.org/2000/svg">
<g clip-path="url(#clip0_172_941)">
<path d="M92.5322 15.0707H77.032V14.1486C77.032 10.97 74.4909 8.37285 71.3809 8.37285H60.353C59.2378 3.58406 55.008 0 49.9848 0C44.9616 0 40.7295 3.58406 39.6165 8.37285H28.5886C25.4786 8.37285 22.9375 10.97 22.9375 14.1486V15.0707H7.43731C3.34123 15.0707 0 18.4717 0 22.672V131.401C0 135.587 3.32763 139.002 7.43731 139.002H67.6951V133.98L7.44864 133.986C6.0523 133.986 4.92798 132.828 4.92798 131.41V131.389V22.6744C4.92798 21.2472 6.06137 20.0981 7.44864 20.0981H22.9489V24.3702C22.9489 27.5489 25.4899 30.146 28.6 30.146H71.3764C74.4864 30.146 77.0275 27.5489 77.0275 24.3702V20.0981H92.5277C93.9218 20.0981 95.0484 21.2565 95.0484 22.6744V57.7736H99.9627V22.672C99.9627 18.4856 96.6351 15.0707 92.5254 15.0707H92.5322ZM72.104 24.3795C72.104 24.7988 71.7776 25.1325 71.3673 25.1325H28.5909C28.1806 25.1325 27.8542 24.7988 27.8542 24.3795V14.1486H27.8655C27.8655 13.7293 28.1919 13.3956 28.6022 13.3956H41.7926C43.1504 13.3956 44.2498 12.2697 44.2498 10.8842C44.2498 7.65233 46.8226 5.02278 49.9848 5.02278C53.1469 5.02278 55.7197 7.65233 55.7197 10.8842C55.7197 12.272 56.8214 13.3956 58.1769 13.3956H71.3673C71.7776 13.3956 72.104 13.7293 72.104 14.1486V24.3795Z" fill="#D2D4F5"/>
<path d="M35.3345 47.8207L23.9621 59.444C23.4883 59.9282 22.8491 60.183 22.228 60.183C21.6069 60.183 20.9994 59.9467 20.5052 59.4764L13.8545 52.8759L17.2773 49.2779L22.1917 54.1501L31.855 44.2737L35.33 47.8253V47.8184L35.3345 47.8207Z" fill="#D2D4F5"/>
<path d="M82.4994 50.2347H45.3242C44.2788 50.2347 43.4314 51.1009 43.4314 52.1693V53.323C43.4314 54.3914 44.2788 55.2575 45.3242 55.2575H82.4994C83.5447 55.2575 84.3921 54.3914 84.3921 53.323V52.1693C84.3921 51.1009 83.5447 50.2347 82.4994 50.2347Z" fill="#D2D4F5"/>
<path d="M35.3345 76.2893L23.9621 87.9126C23.4883 88.3968 22.8491 88.6517 22.228 88.6517C21.6069 88.6517 20.9994 88.4153 20.5052 87.945L13.8545 81.3445L17.2773 77.7466L22.1917 82.6187L31.855 72.7423L35.33 76.2939V76.287L35.3345 76.2893Z" fill="#D2D4F5"/>
<path d="M59.5618 78.7034H45.3242C44.2788 78.7034 43.4314 79.5695 43.4314 80.6379V81.7916C43.4314 82.86 44.2788 83.7262 45.3242 83.7262H59.5618C60.6071 83.7262 61.4546 82.86 61.4546 81.7916V80.6379C61.4546 79.5695 60.6071 78.7034 59.5618 78.7034Z" fill="#D2D4F5"/>
<path d="M22.194 111.09L31.8573 101.213L35.3323 104.765L23.9599 116.388C23.4861 116.872 22.8469 117.127 22.2258 117.127C21.6047 117.127 20.9972 116.891 20.503 116.421L13.8523 109.82L17.2751 106.222L22.1895 111.094V111.087L22.194 111.09Z" fill="#D2D4F5"/>
<path d="M56.284 107.172H45.3242C44.2788 107.172 43.4314 108.038 43.4314 109.107V110.26C43.4314 111.329 44.2788 112.195 45.3242 112.195H56.284C57.3294 112.195 58.1768 111.329 58.1768 110.26V109.107C58.1768 108.038 57.3294 107.172 56.284 107.172Z" fill="#D2D4F5"/>
<path d="M100.774 66.9828C81.3548 66.9828 65.5486 83.14 65.5486 102.986C65.5486 122.831 81.3571 138.988 100.774 138.988C120.192 138.988 136 122.831 136 102.986C136 83.14 120.192 66.9828 100.774 66.9828ZM103.232 133.834V131.452H98.3172V133.834C83.5718 132.61 71.7777 120.568 70.5922 105.497H72.9224V100.474H70.5922C71.789 85.4035 83.5718 73.3493 98.3172 72.1376V74.5193H103.232V72.1376C117.977 73.3609 129.771 85.4035 130.957 100.474H128.626V105.497H130.957C129.76 120.568 117.977 132.622 103.232 133.834Z" fill="#D2D4F5"/>
<path d="M103.231 102.017L117.338 118.042L113.683 121.411L98.9381 104.665C98.5278 104.195 98.2988 103.611 98.2988 102.99V82.8969H103.213V102.024L103.231 102.017Z" fill="#D2D4F5"/>
</g>
<defs>
<clipPath id="clip0_172_941">
<rect width="136" height="139" fill="white"/>
</clipPath>
</defs>
</svg>
