<svg width="134" height="134" viewBox="0 0 134 134" fill="none" xmlns="http://www.w3.org/2000/svg">
<g clip-path="url(#clip0_172_903)">
<path d="M27.9613 16.5512C28.2762 16.712 28.629 16.8014 28.9908 16.8014C29.4665 16.8014 29.9221 16.654 30.3063 16.3748C41.024 8.59163 53.7116 4.47783 66.9999 4.47783C81.9811 4.47783 96.337 9.79763 107.651 19.497L101.165 20.1782C99.9371 20.3055 99.0438 21.411 99.1733 22.6438C99.3006 23.7828 100.257 24.6426 101.4 24.6426C101.46 24.6426 101.547 24.6426 101.646 24.6292L113.027 23.4366C114.255 23.3093 115.148 22.206 115.021 20.9755L113.826 9.58323C113.708 8.43977 112.75 7.5777 111.6 7.5777C111.524 7.5777 111.446 7.58217 111.365 7.58887C110.771 7.6514 110.237 7.94173 109.86 8.4085C109.482 8.87303 109.31 9.45593 109.373 10.05L109.954 15.573C97.9316 5.5141 82.7673 0 66.9999 0C52.7624 0 39.1637 4.41083 27.6754 12.7568C27.1908 13.1074 26.8714 13.6256 26.7776 14.2152C26.6838 14.8048 26.8245 15.3966 27.1751 15.8812L27.9613 16.5512Z" fill="#D2D4F5"/>
<path d="M16.3324 103.638C8.576 92.9335 4.4756 80.266 4.4756 67C4.4756 52.0255 9.7954 37.6696 19.4948 26.3511L20.1759 32.83C20.2943 33.9735 21.2524 34.8355 22.4048 34.8355C22.4807 34.8355 22.5589 34.8311 22.6371 34.8244C23.8654 34.6971 24.7587 33.5916 24.6314 32.3632L23.4366 20.971C23.316 19.8275 22.3601 18.9655 21.2077 18.9655C21.1318 18.9655 21.0536 18.9699 20.9755 18.9766L9.58323 20.1715C8.98917 20.234 8.4554 20.5243 8.07797 20.9911C7.70053 21.4556 7.52857 22.0408 7.5911 22.6326C7.70947 23.7761 8.66757 24.6381 9.81997 24.6381C9.8959 24.6381 9.97407 24.6337 10.0522 24.627L15.5775 24.0463C5.5141 36.0683 0 51.2304 0 66.9933C0 81.2375 4.4086 94.8363 12.7479 106.316C13.1655 106.896 13.8444 107.245 14.5613 107.245C15.037 107.245 15.4926 107.097 15.8723 106.818C16.8728 106.094 17.0962 104.694 16.3748 103.694L16.3324 103.636V103.638Z" fill="#D2D4F5"/>
<path d="M106.141 117.505C105.802 117.308 105.413 117.199 105.011 117.199C104.536 117.199 104.082 117.346 103.696 117.625C92.9781 125.408 80.2905 129.522 67.0022 129.522C52.021 129.522 37.6651 124.202 26.3533 114.503L32.8389 113.822C33.4329 113.759 33.9667 113.469 34.3441 113.002C34.7216 112.538 34.8935 111.953 34.831 111.361C34.7126 110.217 33.7545 109.355 32.6044 109.355C32.5262 109.355 32.4503 109.36 32.3699 109.366L20.9776 110.561C19.7493 110.689 18.856 111.794 18.9833 113.022L20.1781 124.415C20.2965 125.558 21.2546 126.42 22.407 126.42C22.4829 126.42 22.5611 126.416 22.6392 126.409C23.2333 126.346 23.7671 126.056 24.1445 125.589C24.5219 125.125 24.6939 124.542 24.6314 123.948L24.0507 118.423C36.0772 128.484 51.2393 133.998 66.9999 133.998C81.2374 133.998 94.8362 129.587 106.324 121.241C106.809 120.89 107.128 120.372 107.222 119.783C107.316 119.193 107.175 118.601 106.825 118.117L106.139 117.502L106.141 117.505Z" fill="#D2D4F5"/>
<path d="M67 45.7699C55.2951 45.7699 45.7722 55.2928 45.7722 66.9977C45.7722 78.7026 55.2951 88.2256 67 88.2256C78.7049 88.2256 88.2279 78.7026 88.2279 66.9977C88.2279 55.2928 78.7049 45.7699 67 45.7699ZM67 83.7522C57.763 83.7522 50.2478 76.237 50.2478 67C50.2478 57.7629 57.763 50.25 67 50.25C76.2371 50.25 83.7523 57.7651 83.7523 67C83.7523 76.2348 76.2371 83.7522 67 83.7522Z" fill="#D2D4F5"/>
<path d="M124.193 109.362C124.111 109.362 124.026 109.366 123.948 109.375L118.423 109.956C128.484 97.9295 133.998 82.7674 133.998 67.0067C133.998 52.7648 129.589 39.1638 121.248 27.6822C120.828 27.1015 120.151 26.7554 119.434 26.7554C118.961 26.7554 118.507 26.9028 118.123 27.1797C117.639 27.5303 117.319 28.0485 117.225 28.6381C117.132 29.2277 117.272 29.8195 117.623 30.3064C125.406 41.0241 129.52 53.7117 129.52 67C129.52 81.9745 124.2 96.3304 114.501 107.649L113.82 101.17C113.701 100.027 112.743 99.1645 111.591 99.1645C111.515 99.1645 111.437 99.169 111.358 99.1757C110.13 99.303 109.237 100.408 109.364 101.637L110.559 113.036C110.686 114.175 111.642 115.035 112.786 115.035C112.846 115.035 112.933 115.035 113.031 115.021L124.412 113.829C125.511 113.712 126.554 112.605 126.407 111.37C126.259 110.132 125.335 109.362 124.189 109.362H124.193Z" fill="#D2D4F5"/>
<path d="M114.735 61.6289C114.347 58.1605 111.651 55.5341 108.178 55.2415L101.552 54.6765C100.699 54.6028 99.9953 54.0936 99.6692 53.3119C99.3432 52.5303 99.4727 51.6682 100.013 51.0116L104.259 45.8995C106.488 43.215 106.508 39.4541 104.31 36.7495C102.144 34.0762 99.667 31.6196 96.949 29.4465C95.6425 28.4036 94.0859 27.8519 92.4466 27.8519C90.8074 27.8519 89.11 28.4639 87.7991 29.5716L82.7182 33.8551C82.3028 34.2058 81.807 34.3934 81.2889 34.3934C80.9986 34.3934 80.7082 34.3353 80.4246 34.2192C79.6407 33.8976 79.1248 33.2008 79.0466 32.3521L78.4302 25.7303C78.1086 22.2574 75.4599 19.5841 71.9916 19.2246C70.3411 19.0526 68.6594 18.9633 66.9934 18.9633C65.2044 18.9633 63.3999 19.0638 61.6267 19.2625C58.1583 19.6511 55.5319 22.3468 55.2393 25.8196L54.6743 32.4459C54.6006 33.299 54.0914 34.0025 53.3097 34.3286C53.0238 34.447 52.729 34.5073 52.4342 34.5073C51.9184 34.5073 51.4248 34.3264 51.0116 33.9824L45.8995 29.7369C44.593 28.6515 42.956 28.0552 41.2922 28.0552C39.6283 28.0552 38.0427 28.6336 36.7496 29.6855C34.0763 31.8518 31.6196 34.3286 29.4466 37.0466C27.2691 39.7735 27.3204 43.5366 29.5716 46.1965L33.8551 51.2774C34.4135 51.9362 34.5453 52.7737 34.2192 53.571C33.8976 54.3549 33.2008 54.8708 32.3521 54.949L25.7303 55.5654C22.2575 55.887 19.5842 58.5357 19.2246 62.0041C18.865 65.4412 18.8784 68.9274 19.2648 72.369C19.6534 75.8373 22.349 78.4637 25.8219 78.7563L32.4481 79.3213C33.3013 79.395 34.0048 79.9042 34.3309 80.6859C34.6569 81.4676 34.5274 82.3296 33.9869 82.9862L29.7414 88.0983C27.5125 90.7828 27.4924 94.5437 29.69 97.2483C31.8563 99.9216 34.3331 102.378 37.051 104.551C38.3575 105.594 39.9142 106.146 41.5512 106.146C43.1882 106.146 44.8856 105.536 46.201 104.426L51.2818 100.143C51.6973 99.7921 52.1931 99.6045 52.7112 99.6045C53.0015 99.6045 53.2919 99.6625 53.5755 99.7786C54.3594 100.1 54.8753 100.797 54.9534 101.646L55.5699 108.268C55.8915 111.738 58.5402 114.414 62.0108 114.773C63.6992 114.947 65.3809 115.035 67.009 115.035C68.7957 115.035 70.6002 114.936 72.3734 114.74C75.8418 114.351 78.4682 111.656 78.7608 108.183L79.3258 101.556C79.3995 100.703 79.9087 99.9997 80.6904 99.6737C80.9762 99.5553 81.271 99.495 81.5658 99.495C82.0817 99.495 82.5753 99.6759 82.9907 100.02L88.1028 104.265C89.4093 105.351 91.0441 105.947 92.7102 105.947C94.345 105.947 95.9597 105.369 97.2528 104.317C99.9261 102.15 102.383 99.6737 104.556 96.9557C106.729 94.2333 106.68 90.4701 104.431 87.8058L100.147 82.7249C99.5888 82.0661 99.4571 81.2286 99.7831 80.4313C100.105 79.6474 100.802 79.1315 101.65 79.0533L108.274 78.4369C111.745 78.1064 114.418 75.4554 114.778 71.9915C115.137 68.55 115.124 65.0637 114.738 61.6266L114.735 61.6289ZM110.32 71.5337C110.184 72.8447 109.17 73.8497 107.854 73.977L101.235 74.5934C98.7335 74.8234 96.5872 76.4091 95.6381 78.7317C94.6889 81.0522 95.1065 83.6853 96.7257 85.6082L101.009 90.689C101.862 91.6985 101.882 93.1233 101.056 94.1574C99.0953 96.6163 96.8642 98.863 94.4276 100.835C93.9273 101.241 93.331 101.456 92.7057 101.456C92.0804 101.456 91.464 101.235 90.9592 100.815L85.8471 96.5694C84.6412 95.5688 83.1202 95.015 81.5591 95.015C80.6636 95.015 79.7903 95.1914 78.9595 95.5398C76.648 96.5091 75.0802 98.6687 74.8658 101.172L74.3008 107.801C74.1891 109.118 73.1931 110.141 71.8776 110.286C70.2652 110.465 68.6215 110.557 66.9956 110.557C65.4859 110.557 63.965 110.479 62.4731 110.324C61.1621 110.188 60.1571 109.174 60.0298 107.859L59.4134 101.239C59.1834 98.7357 57.5977 96.5917 55.2773 95.6425C54.4688 95.3075 53.6112 95.1378 52.7268 95.1378C51.1479 95.1378 49.6113 95.7028 48.3964 96.7279L43.3155 101.011C42.8153 101.434 42.1899 101.666 41.5534 101.666C40.917 101.666 40.3452 101.456 39.8472 101.058C37.3883 99.0975 35.1416 96.8686 33.1695 94.4298C32.3387 93.4047 32.3454 91.9776 33.1896 90.9615L37.4352 85.8493C39.0409 83.9175 39.4362 81.2777 38.4647 78.964C37.4955 76.6525 35.3358 75.0847 32.8323 74.8703L26.2038 74.3053C24.8861 74.1936 23.8632 73.1975 23.7181 71.8821C23.3719 68.7577 23.3585 65.5953 23.6801 62.4775C23.8163 61.1666 24.8303 60.1616 26.1457 60.0343L32.7653 59.4179C35.2689 59.1878 37.4129 57.6022 38.362 55.2773C39.3112 52.9568 38.8935 50.3237 37.2744 48.4008L32.9909 43.32C32.1377 42.3105 32.1176 40.8857 32.9439 39.8516C34.9048 37.3927 37.1337 35.146 39.5725 33.174C40.0728 32.7675 40.669 32.5531 41.2944 32.5531C41.9197 32.5531 42.5361 32.7742 43.0408 33.1941L48.153 37.4374C49.359 38.4402 50.8799 38.9918 52.4409 38.9918C53.3365 38.9918 54.2098 38.8154 55.0383 38.467C57.3498 37.4977 58.9176 35.3381 59.132 32.8345L59.697 26.206C59.8087 24.8883 60.8048 23.8654 62.118 23.7203C63.7305 23.5416 65.3742 23.45 67 23.45C68.5098 23.45 70.0307 23.5282 71.5225 23.6823C72.8335 23.8185 73.8385 24.8325 73.9658 26.1479L74.5822 32.7675C74.8123 35.2711 76.3979 37.4151 78.7228 38.3642C79.538 38.697 80.3933 38.8645 81.2666 38.8645C82.8433 38.8645 84.3821 38.2995 85.5992 37.2766L90.6801 32.9931C91.1803 32.571 91.8057 32.3387 92.4422 32.3387C93.0787 32.3387 93.6504 32.5486 94.1484 32.9462C96.6073 34.907 98.8541 37.1359 100.826 39.5747C101.657 40.5998 101.65 42.0269 100.806 43.0431L96.5604 48.1552C94.9547 50.087 94.5594 52.7268 95.5309 55.0405C96.5001 57.352 98.6598 58.9198 101.163 59.1342L107.792 59.6993C109.11 59.8109 110.132 60.807 110.278 62.1247C110.626 65.2111 110.639 68.3758 110.316 71.527L110.32 71.5337Z" fill="#D2D4F5"/>
</g>
<defs>
<clipPath id="clip0_172_903">
<rect width="134" height="134" fill="white"/>
</clipPath>
</defs>
</svg>
