<svg width="102" height="129" viewBox="0 0 102 129" fill="none" xmlns="http://www.w3.org/2000/svg">
<g clip-path="url(#clip0_172_910)">
<path d="M91.5388 73.4706L97.5246 76.8691V83.6683L91.5388 87.0668L85.553 83.6683V76.8691L91.5388 73.4706ZM91.5388 69.0684C90.7668 69.0684 89.9948 69.2643 89.3011 69.6583L83.3153 73.0568C81.9302 73.8425 81.0776 75.2975 81.0776 76.8691V83.6683C81.0776 85.2421 81.9302 86.6948 83.3153 87.4806L89.3011 90.8791C89.9925 91.2731 90.7668 91.469 91.5388 91.469C92.3108 91.469 93.0828 91.2731 93.7765 90.8791L99.7622 87.4806C101.147 86.6948 102 85.2399 102 83.6683V76.8691C102 75.2953 101.147 73.8425 99.7622 73.0568L93.7765 69.6583C93.085 69.2643 92.3108 69.0684 91.5388 69.0684Z" fill="#D2D4F5"/>
<path d="M10.4611 73.4706L16.4469 76.8691V83.6683L10.4611 87.0668L4.47535 83.6683V76.8691L10.4611 73.4706ZM10.4611 69.0684C9.68914 69.0684 8.91714 69.2643 8.22346 69.6583L2.23768 73.0568C0.852555 73.8425 0 75.2975 0 76.8691V83.6683C0 85.2421 0.852555 86.6948 2.23768 87.4806L8.22346 90.8791C8.9149 91.2731 9.68914 91.469 10.4611 91.469C11.2331 91.469 12.0051 91.2731 12.6988 90.8791L18.6846 87.4806C20.0697 86.6948 20.9223 85.2399 20.9223 83.6683V76.8691C20.9223 75.2953 20.0697 73.8425 18.6846 73.0568L12.6988 69.6583C12.0074 69.2643 11.2331 69.0684 10.4611 69.0684Z" fill="#D2D4F5"/>
<path d="M91.5388 27.4258L97.5246 30.8243V37.6235L91.5388 41.022L85.553 37.6235V30.8243L91.5388 27.4258ZM91.5388 23.0236C90.7668 23.0236 89.9948 23.2195 89.3011 23.6135L83.3153 27.012C81.9302 27.7978 81.0776 29.2527 81.0776 30.8243V37.6235C81.0776 39.1973 81.9302 40.65 83.3153 41.4358L89.3011 44.8343C89.9925 45.2283 90.7668 45.4242 91.5388 45.4242C92.3108 45.4242 93.0828 45.2283 93.7765 44.8343L99.7622 41.4358C101.147 40.65 102 39.1951 102 37.6235V30.8243C102 29.2505 101.147 27.7978 99.7622 27.012L93.7765 23.6135C93.085 23.2195 92.3108 23.0236 91.5388 23.0236Z" fill="#D2D4F5"/>
<path d="M10.4611 27.4258L16.4469 30.8243V37.6235L10.4611 41.022L4.47535 37.6235V30.8243L10.4611 27.4258ZM10.4611 23.0236C9.68914 23.0236 8.91714 23.2195 8.22346 23.6135L2.23768 27.012C0.852555 27.7978 0 29.2527 0 30.8243V37.6235C0 39.1973 0.852555 40.65 2.23768 41.4358L8.22346 44.8343C8.9149 45.2283 9.68914 45.4242 10.4611 45.4242C11.2331 45.4242 12.0051 45.2283 12.6988 44.8343L18.6846 41.4358C20.0697 40.65 20.9223 39.1951 20.9223 37.6235V30.8243C20.9223 29.2505 20.0697 27.7978 18.6846 27.012L12.6988 23.6135C12.0074 23.2195 11.2331 23.0236 10.4611 23.0236Z" fill="#D2D4F5"/>
<path d="M50.999 4.4022L56.9848 7.80071V14.5999L50.999 18.0006L45.0132 14.6021V7.80291L50.999 4.4022ZM50.999 0C50.227 0 49.4527 0.195898 48.7613 0.589895L42.7755 3.9906C41.3904 4.77639 40.5378 6.23132 40.5378 7.80291V14.6021C40.5378 16.1759 41.3904 17.6286 42.7755 18.4144L48.7613 21.8129C49.4527 22.2069 50.227 22.4028 50.999 22.4028C51.771 22.4028 52.5452 22.2069 53.2367 21.8129L59.2224 18.4122C60.6076 17.6264 61.4601 16.1715 61.4601 14.5999V7.80071C61.4601 6.22692 60.6076 4.77419 59.2224 3.9884L53.2367 0.589895C52.5452 0.195898 51.771 0 50.999 0Z" fill="#D2D4F5"/>
<path d="M25.0798 27.5623C24.2967 27.5623 23.5381 27.1573 23.1286 26.4397C22.5222 25.381 22.9048 24.0383 23.9811 23.4418L35.6708 16.9728C36.7471 16.3763 38.1121 16.7526 38.7185 17.8114C39.3249 18.8701 38.9422 20.2128 37.8659 20.8093L26.1763 27.2783C25.8295 27.4698 25.4535 27.5623 25.0821 27.5623H25.0798Z" fill="#D2D4F5"/>
<path d="M77.6966 27.5623C77.3252 27.5623 76.9492 27.472 76.6024 27.2783L64.9128 20.8093C63.8365 20.2128 63.4538 18.8723 64.0602 17.8114C64.6666 16.7526 66.0316 16.3763 67.1079 16.9728L78.7976 23.4418C79.8739 24.0383 80.2565 25.3788 79.6501 26.4397C79.2384 27.1573 78.4798 27.5623 77.6989 27.5623H77.6966Z" fill="#D2D4F5"/>
<path d="M10.4611 66.4909C9.22587 66.4909 8.22339 65.5048 8.22339 64.2898V50.5307C8.22339 49.3157 9.22587 48.3296 10.4611 48.3296C11.6963 48.3296 12.6987 49.3157 12.6987 50.5307V64.2898C12.6987 65.5048 11.6963 66.4909 10.4611 66.4909Z" fill="#D2D4F5"/>
<path d="M91.5389 66.4909C90.3037 66.4909 89.3013 65.5048 89.3013 64.2898V50.5307C89.3013 49.3157 90.3037 48.3296 91.5389 48.3296C92.7741 48.3296 93.7766 49.3157 93.7766 50.5307V64.2898C93.7766 65.5048 92.7741 66.4909 91.5389 66.4909Z" fill="#D2D4F5"/>
<path d="M84.0405 97.6893L76.175 86.5341L64.886 70.5145V46.8372C67.6159 46.2099 69.5605 43.8283 69.5605 41.0395V39.4481C69.5605 36.1597 66.8417 33.4854 63.4986 33.4854H38.506C35.1629 33.4854 32.4441 36.1597 32.4441 39.4481V41.0395C32.4441 43.8283 34.3887 46.2099 37.1186 46.8372V70.5145L25.8251 86.5341L23.3525 90.0449L10.2576 108.62C8.22352 111.506 8.07136 114.911 9.8257 118.206C12.9361 124.054 21.8801 128.998 29.3539 128.998H72.6529C80.1268 128.998 89.0708 124.056 92.1834 118.208C93.9377 114.911 93.7855 111.508 91.7515 108.62L84.0449 97.6871L84.0405 97.6893ZM36.7696 41.0373V39.4459C36.7696 38.5061 37.5483 37.7401 38.5038 37.7401H63.4964C64.4519 37.7401 65.2306 38.5039 65.2306 39.4459V41.0373C65.2306 41.493 65.0515 41.92 64.7226 42.2413C64.3937 42.5649 63.9596 42.7432 63.4964 42.7432H38.5038C37.5483 42.7432 36.7696 41.9772 36.7696 41.0373ZM41.0592 72.3942C41.312 72.0377 41.4441 71.6173 41.4441 71.1814V47.0023H60.5561V71.1814C60.5561 71.6151 60.6881 72.0333 60.9409 72.3942L66.5866 80.404H35.4135L41.0592 72.3942ZM88.3458 116.236C85.9761 120.689 78.4933 124.743 72.6485 124.743H29.3494C23.5046 124.743 16.0218 120.689 13.6521 116.236C12.625 114.305 12.6743 112.657 13.8088 111.048L32.4106 84.661H69.5873L88.1891 111.048C89.3214 112.657 89.3706 114.305 88.3435 116.236H88.3458Z" fill="#D2D4F5"/>
<path fill-rule="evenodd" clip-rule="evenodd" d="M42.7686 89.7588C38.837 89.7588 35.6394 92.902 35.6394 96.7649C35.6394 100.628 38.837 103.778 42.7686 103.778C46.7002 103.778 49.8912 100.632 49.8912 96.7649C49.8912 92.8976 46.6958 89.7588 42.7686 89.7588ZM42.7664 100.273C40.8017 100.273 39.2018 98.6997 39.2018 96.7671C39.2018 94.8345 40.8017 93.2629 42.7664 93.2629C44.7311 93.2629 46.3288 94.8345 46.3288 96.7671C46.3288 98.6997 44.7311 100.273 42.7664 100.273Z" fill="#D2D4F5"/>
<path fill-rule="evenodd" clip-rule="evenodd" d="M65.2327 101.508C61.3012 101.508 58.1035 104.651 58.1035 108.514C58.1035 112.377 61.3012 115.527 65.2327 115.527C69.1643 115.527 72.3553 112.382 72.3553 108.514C72.3553 104.647 69.1599 101.508 65.2327 101.508ZM65.2305 112.021C63.2658 112.021 61.6659 110.447 61.6659 108.514C61.6659 106.582 63.2658 105.01 65.2305 105.01C67.1952 105.01 68.7929 106.582 68.7929 108.514C68.7929 110.447 67.1952 112.021 65.2305 112.021Z" fill="#D2D4F5"/>
<path fill-rule="evenodd" clip-rule="evenodd" d="M49.0207 109.375C45.5702 109.375 42.7642 112.133 42.7642 115.525C42.7642 118.917 45.5702 121.679 49.0207 121.679C52.4712 121.679 55.2728 118.919 55.2728 115.525C55.2728 112.131 52.469 109.375 49.0207 109.375ZM49.0207 118.063C47.5998 118.063 46.4429 116.925 46.4429 115.527C46.4429 114.129 47.5998 112.991 49.0207 112.991C50.4416 112.991 51.5985 114.129 51.5985 115.527C51.5985 116.925 50.4416 118.063 49.0207 118.063Z" fill="#D2D4F5"/>
</g>
<defs>
<clipPath id="clip0_172_910">
<rect width="102" height="129" fill="white"/>
</clipPath>
</defs>
</svg>
