<svg width="136" height="134" viewBox="0 0 136 134" fill="none" xmlns="http://www.w3.org/2000/svg">
<g clip-path="url(#clip0_172_928)">
<path d="M45.4428 13.6365C31.5538 19.547 20.414 30.7441 14.5303 44.6994H19.4621C24.7906 33.2267 34.0242 23.9452 45.4428 18.5927V13.6365Z" fill="#D2D4F5"/>
<path d="M90.5596 13.6365V18.5927C101.976 23.9475 111.212 33.2267 116.538 44.6994H121.47C115.588 30.7441 104.449 19.547 90.5596 13.6365Z" fill="#D2D4F5"/>
<path d="M45.4428 125.657V120.701C34.0242 115.346 24.7906 106.067 19.4621 94.5917H14.5303C20.414 108.549 31.5538 119.746 45.4428 125.657Z" fill="#D2D4F5"/>
<path d="M116.538 94.594C111.209 106.069 101.976 115.348 90.5596 120.703V125.659C104.449 119.749 115.588 108.552 121.472 94.594H116.54H116.538Z" fill="#D2D4F5"/>
<path d="M74.4743 94.5939C72.5818 93.4437 70.3697 92.7695 68.0012 92.7695C65.6328 92.7695 63.4207 93.4437 61.5282 94.5939C57.886 96.8056 55.4404 100.812 55.4404 105.392C55.4404 112.353 61.0772 118.018 68.0035 118.018C74.9299 118.018 80.5666 112.353 80.5666 105.392C80.5666 100.814 78.1211 96.8078 74.4788 94.5939H74.4743ZM68.0012 113.501C63.5522 113.501 59.9326 109.863 59.9326 105.392C59.9326 100.921 63.5522 97.2839 68.0012 97.2839C72.4503 97.2839 76.0699 100.921 76.0699 105.392C76.0699 109.863 72.4503 113.501 68.0012 113.501Z" fill="#D2D4F5"/>
<path d="M51.6167 134H53.8628C53.8628 128.629 58.2121 124.258 63.5565 124.258H72.4434C77.7877 124.258 82.1371 128.629 82.1371 134H86.6315C86.6315 126.137 80.2672 119.744 72.4456 119.744H63.5565C55.7326 119.744 49.3706 126.14 49.3706 134H51.6167Z" fill="#D2D4F5"/>
<path d="M80.5617 12.6251C80.5617 5.66457 74.925 0 67.9986 0C61.0723 0 55.4355 5.66457 55.4355 12.6251C55.4355 19.5857 61.0723 25.2503 67.9986 25.2503C74.925 25.2503 80.5617 19.588 80.5617 12.6251ZM59.93 12.6251C59.93 8.15407 63.5495 4.51662 67.9986 4.51662C72.4477 4.51662 76.0673 8.15407 76.0673 12.6251C76.0673 17.0962 72.4477 20.7336 67.9986 20.7336C63.5495 20.7336 59.93 17.0962 59.93 12.6251Z" fill="#D2D4F5"/>
<path d="M49.3706 41.2304H53.865C53.865 35.8597 58.2144 31.4911 63.5588 31.4911H72.4456C77.79 31.4911 82.1371 35.8597 82.1393 41.2304H86.6338C86.6338 33.3679 80.2695 26.9745 72.4479 26.9745H63.5588C55.7349 26.9745 49.3706 33.3702 49.3706 41.2304Z" fill="#D2D4F5"/>
<path d="M117.37 50.1794C110.443 50.1794 104.807 55.844 104.807 62.8046C104.807 69.7651 110.443 75.4297 117.37 75.4297C124.296 75.4297 129.933 69.7651 129.933 62.8046C129.933 55.844 124.298 50.1794 117.37 50.1794ZM117.37 70.9131C112.921 70.9131 109.301 67.2756 109.301 62.8046C109.301 58.3335 112.921 54.6961 117.37 54.6961C121.819 54.6961 125.438 58.3335 125.438 62.8046C125.438 67.2779 121.819 70.9131 117.37 70.9131Z" fill="#D2D4F5"/>
<path d="M131.508 91.4121H136.002C136.002 83.5496 129.638 77.1561 121.816 77.1561H112.927C105.103 77.1561 98.7412 83.5518 98.7412 91.4121H103.236C103.236 86.0413 107.585 81.6705 112.929 81.6705H121.816C127.161 81.6705 131.508 86.0413 131.508 91.4121Z" fill="#D2D4F5"/>
<path d="M18.6305 50.1794C11.7041 50.1794 6.06738 55.844 6.06738 62.8046C6.06738 69.7651 11.7041 75.4297 18.6305 75.4297C25.5568 75.4297 31.1936 69.7651 31.1936 62.8046C31.1936 55.844 25.5591 50.1794 18.6305 50.1794ZM18.6305 70.9131C14.1814 70.9131 10.5618 67.2756 10.5618 62.8046C10.5618 58.3335 14.1814 54.6961 18.6305 54.6961C23.0796 54.6961 26.6991 58.3335 26.6991 62.8046C26.6991 67.2756 23.0796 70.9131 18.6305 70.9131Z" fill="#D2D4F5"/>
<path d="M4.49443 91.4121C4.49443 86.0413 8.8438 81.6705 14.1882 81.6705H23.075C28.4194 81.6705 32.7687 86.0413 32.7687 91.4121H37.2632C37.2632 83.5496 30.8989 77.1561 23.0773 77.1561H14.1904C6.36654 77.1561 0 83.5518 0 91.4121H4.49443Z" fill="#D2D4F5"/>
</g>
<defs>
<clipPath id="clip0_172_928">
<rect width="136" height="134" fill="white"/>
</clipPath>
</defs>
</svg>
