<svg width="44" height="29" viewBox="0 0 44 29" fill="none" xmlns="http://www.w3.org/2000/svg">
<path d="M4.35768 0C3.4078 0 2.53586 0.296504 1.82153 0.793879L1.83824 0.810495L20.9026 18.213C21.324 18.5978 22.2515 18.5978 22.6728 18.213L41.7372 0.810495L41.7539 0.793879C41.0396 0.296135 40.1676 0 39.2178 0H4.35716H4.35768ZM0.425544 2.41527C0.156162 2.96656 0 3.58174 0 4.23493V24.3504C0 26.6966 1.9434 28.5853 4.35768 28.5853H39.2183C41.6325 28.5853 43.576 26.6967 43.576 24.3504V4.23493C43.576 3.58172 43.4198 2.96656 43.1504 2.41527L24.1716 19.7516C22.8384 20.9683 20.7388 20.9679 19.4055 19.7516L0.425544 2.41527Z" fill="black"/>
</svg>
